<?xml version="1.0" encoding="UTF-8"?>
<svg version="1.1" xmlns="http://www.w3.org/2000/svg" width="500" height="500">
<path d="M0 0 C0.99 0 1.98 0 3 0 C3.4021875 1.60875 3.4021875 1.60875 3.8125 3.25 C4.87631151 6.60940478 5.83366479 8.34131588 8 11 C8 11.66 8 12.32 8 13 C8.66 13 9.32 13 10 13 C11.31274414 14.42114258 11.31274414 14.42114258 12.78515625 16.39453125 C13.58083008 17.45704102 13.58083008 17.45704102 14.39257812 18.54101562 C14.94365234 19.29060547 15.49472656 20.04019531 16.0625 20.8125 C16.61744141 21.55048828 17.17238281 22.28847656 17.74414062 23.04882812 C21.86510493 28.5953148 21.86510493 28.5953148 23 32 C23.66 32 24.32 32 25 32 C26.15625 33.29296875 26.15625 33.29296875 27.5 35.1875 C30.19292462 38.90007568 32.94598816 42.55836477 35.75 46.1875 C36.62377491 47.32155526 37.49747176 48.45567067 38.37109375 49.58984375 C38.80921387 50.15815918 39.24733398 50.72647461 39.69873047 51.31201172 C41.73783016 53.95710277 43.7753722 56.60339006 45.8125 59.25 C46.21911865 59.77770996 46.6257373 60.30541992 47.04467773 60.84912109 C49.39525916 63.90265899 51.73429844 66.96451386 54.0625 70.03515625 C60.02050682 77.88272821 66.07858028 85.62291862 72.32202148 93.24560547 C76.57449662 98.44645571 80.69675421 103.73274573 84.765625 109.078125 C87.40040284 112.52360371 90.10010914 115.91465168 92.8203125 119.29296875 C94 121 94 121 94 123 C94.66 123 95.32 123 96 123 C97.37898043 124.69810754 98.67959478 126.46035459 99.9375 128.25 C100.97197266 129.71179688 100.97197266 129.71179688 102.02734375 131.203125 C102.67832031 132.12609375 103.32929688 133.0490625 104 134 C104.57878906 134.73734375 105.15757812 135.4746875 105.75390625 136.234375 C107 138 107 138 107 140 C107.66 140 108.32 140 109 140 C110.58432066 141.86157678 112.04852878 143.72576759 113.5 145.6875 C114.4087457 146.89200892 115.31760284 148.09643378 116.2265625 149.30078125 C116.6896582 149.91904785 117.15275391 150.53731445 117.62988281 151.17431641 C119.69249867 153.92275571 121.78244395 156.64925951 123.875 159.375 C124.27952393 159.902146 124.68404785 160.42929199 125.10083008 160.97241211 C128.41239849 165.27248917 131.79152145 169.51640318 135.1875 173.75 C135.6942627 174.38236572 136.20102539 175.01473145 136.72314453 175.66625977 C138.91874755 178.40555303 141.11565746 181.14374291 143.31640625 183.87890625 C143.95449219 184.68199219 144.59257812 185.48507813 145.25 186.3125 C145.79140625 186.98925781 146.3328125 187.66601562 146.890625 188.36328125 C148 190 148 190 148 192 C148.66 192 149.32 192 150 192 C151.72682185 194.04967534 153.34312715 196.10116271 154.9375 198.25 C155.38029297 198.83652344 155.82308594 199.42304688 156.27929688 200.02734375 C157.13937291 201.16813014 157.99547412 202.31192641 158.84716797 203.45898438 C159.81607129 204.75413849 160.81310336 206.02818231 161.81640625 207.296875 C163 209 163 209 163 211 C163.66 211 164.32 211 165 211 C166.89236637 213.33887978 168.67562171 215.69030894 170.4375 218.125 C171.5259813 219.60386835 172.61585243 221.08171464 173.70703125 222.55859375 C174.2582666 223.30608887 174.80950195 224.05358398 175.37744141 224.82373047 C177.73771303 227.98946342 180.17285341 231.09269455 182.625 234.1875 C186.11542562 238.60111113 189.57827634 243.03288124 193 247.5 C196.02581566 251.44985275 199.07579796 255.37857452 202.15917969 259.28369141 C203.996232 261.61228625 205.82353879 263.94844833 207.65087891 266.28466797 C209.00093475 268.00118848 210.36547054 269.70550828 211.73046875 271.41015625 C212.57099572 272.48123503 213.4108709 273.55282572 214.25 274.625 C214.99765625 275.56601562 215.7453125 276.50703125 216.515625 277.4765625 C218 280 218 280 217.80932617 281.97314453 C216.805931 284.48602137 215.70644345 285.35749403 213.53515625 286.953125 C212.82262695 287.48574951 212.11009766 288.01837402 211.37597656 288.56713867 C210.6125293 289.12248291 209.84908203 289.67782715 209.0625 290.25 C207.49548107 291.41714661 205.92907129 292.58511154 204.36328125 293.75390625 C203.60611816 294.31480957 202.84895508 294.87571289 202.06884766 295.45361328 C199.58407922 297.31088532 197.15937523 299.23362855 194.75 301.1875 C190.67330173 304.47758703 186.53617312 307.68164398 182.37792969 310.86791992 C177.56772085 314.55616353 172.78199347 318.27526874 168 322 C159.58214633 328.55435935 151.13433097 335.06818046 142.6640625 341.5546875 C136.91850671 345.95880668 131.21801713 350.41001524 125.578125 354.94921875 C122.12405878 357.69677142 118.62134768 360.37939525 115.11743164 363.06274414 C110.2698332 366.77987777 105.46415485 370.54884929 100.66894531 374.33325195 C99.115034 375.55855592 97.55765786 376.77946235 96 378 C94.87271484 378.89912109 94.87271484 378.89912109 93.72265625 379.81640625 C92 381 92 381 90 381 C90 381.66 90 382.32 90 383 C87.59795209 384.93188546 85.18323785 386.75873555 82.6875 388.5625 C76.88760081 392.827113 71.23666825 397.1983768 65.6953125 401.796875 C62.20344708 404.65109543 58.62889463 407.39130439 55.04614258 410.12939453 C51.00450491 413.22023352 46.99572997 416.35008553 43 419.5 C41.25759298 420.86985369 39.51466211 422.23903738 37.77148438 423.60791016 C36.56364086 424.55707274 35.35664412 425.50731363 34.15039062 426.45849609 C32.35398723 427.87299813 30.55263845 429.28095699 28.75 430.6875 C28.20085937 431.12191406 27.65171875 431.55632812 27.0859375 432.00390625 C23.22822202 435 23.22822202 435 21 435 C21 435.66 21 436.32 21 437 C18.99160249 438.68359732 16.98029418 440.25870136 14.875 441.8125 C13.72562794 442.67192865 12.57718636 443.53260313 11.4296875 444.39453125 C10.85992187 444.81927734 10.29015625 445.24402344 9.703125 445.68164062 C7.99115242 447.00684876 6.37065036 448.4061235 4.7421875 449.83203125 C2 452 2 452 -0.75 451.875 C-3 451 -3 451 -5 450 C-5 449.34 -5 448.68 -5 448 C-5.81984375 447.62681641 -5.81984375 447.62681641 -6.65625 447.24609375 C-9.4729731 445.74853597 -11.93304795 443.95597974 -14.5 442.0625 C-15.4384375 441.37285156 -16.376875 440.68320312 -17.34375 439.97265625 C-18.2203125 439.32167969 -19.096875 438.67070312 -20 438 C-21.16015625 437.19369141 -21.16015625 437.19369141 -22.34375 436.37109375 C-23.16359375 435.69240234 -23.16359375 435.69240234 -24 435 C-24 434.34 -24 433.68 -24 433 C-24.7425 432.731875 -25.485 432.46375 -26.25 432.1875 C-28.89061949 431.04723249 -30.85552844 429.90619694 -33 428 C-33 427.34 -33 426.68 -33 426 C-33.71671875 425.75894531 -34.4334375 425.51789063 -35.171875 425.26953125 C-38.41343202 423.81441242 -40.57346946 422.0237288 -43.25 419.6875 C-48.12202458 415.50740165 -53.12851234 411.55728839 -58.25 407.6875 C-64.76611446 402.75703928 -71.13036035 397.67360333 -77.43652344 392.47802734 C-81.91796929 388.80984741 -86.51453302 385.42723595 -91.375 382.26953125 C-91.91125 381.85058594 -92.4475 381.43164062 -93 381 C-93 380.34 -93 379.68 -93 379 C-93.58426758 378.72220703 -94.16853516 378.44441406 -94.77050781 378.15820312 C-98.35053239 376.29840937 -101.49990385 373.87766958 -104.75 371.5 C-105.44738281 371.00113281 -106.14476562 370.50226563 -106.86328125 369.98828125 C-107.52199219 369.50746094 -108.18070312 369.02664063 -108.859375 368.53125 C-109.46233398 368.09361328 -110.06529297 367.65597656 -110.68652344 367.20507812 C-111.1199707 366.80740234 -111.55341797 366.40972656 -112 366 C-112 365.34 -112 364.68 -112 364 C-112.7425 363.731875 -113.485 363.46375 -114.25 363.1875 C-116.89061949 362.04723249 -118.85552844 360.90619694 -121 359 C-121 358.34 -121 357.68 -121 357 C-121.71285156 356.76023437 -122.42570312 356.52046875 -123.16015625 356.2734375 C-126.4326117 354.80600906 -128.71293669 352.95150654 -131.4375 350.625 C-134.43933768 348.0977772 -137.35992145 345.646198 -140.6875 343.5625 C-141.450625 343.046875 -142.21375 342.53125 -143 342 C-143 341.34 -143 340.68 -143 340 C-143.71542969 339.76023437 -144.43085938 339.52046875 -145.16796875 339.2734375 C-148.43414699 337.80478356 -150.61669449 335.98144669 -153.3125 333.625 C-157.95356015 329.64444888 -162.71329427 325.89085327 -167.625 322.25 C-179.92238606 313.11437561 -191.97357153 303.66659056 -203.91650391 294.07324219 C-208.57325789 290.33301101 -213.26665216 286.64301026 -218 283 C-217.125 278.25 -217.125 278.25 -216 276 C-215.34 276 -214.68 276 -214 276 C-213.63068359 275.18015625 -213.63068359 275.18015625 -213.25390625 274.34375 C-211.73145066 271.49803861 -209.89411248 269.06740685 -207.9375 266.5 C-207.14085937 265.45328125 -206.34421875 264.4065625 -205.5234375 263.328125 C-205.10932617 262.78478516 -204.69521484 262.24144531 -204.26855469 261.68164062 C-202.98677026 259.98246219 -201.72883354 258.26789496 -200.4765625 256.546875 C-199.86953491 255.71833008 -199.86953491 255.71833008 -199.25024414 254.87304688 C-198.11282069 253.31876299 -196.98012696 251.76102121 -195.84765625 250.203125 C-195.23792969 249.47609375 -194.62820312 248.7490625 -194 248 C-193.34 248 -192.68 248 -192 248 C-191.62101562 247.16855469 -191.62101562 247.16855469 -191.234375 246.3203125 C-189.79696406 243.61834383 -188.0994876 241.31548927 -186.25 238.875 C-185.45851562 237.82957031 -184.66703125 236.78414062 -183.8515625 235.70703125 C-181.71711151 232.92051552 -179.56067181 230.1517199 -177.3984375 227.38671875 C-176.77549805 226.58959473 -176.15255859 225.7924707 -175.51074219 224.97119141 C-174.27215647 223.38912425 -173.03070533 221.80929542 -171.78613281 220.23193359 C-169.41052028 217.20233047 -167.16873758 214.2862644 -165.2109375 210.96484375 C-164.81132812 210.31644531 -164.41171875 209.66804687 -164 209 C-163.34 209 -162.68 209 -162 209 C-161.77183594 208.47148437 -161.54367188 207.94296875 -161.30859375 207.3984375 C-159.56441128 204.2016374 -157.33324928 201.45557389 -155.0625 198.625 C-154.06370814 197.3672621 -153.06501289 196.10944747 -152.06640625 194.8515625 C-151.30094482 193.8910498 -151.30094482 193.8910498 -150.52001953 192.91113281 C-148.16616617 189.951614 -145.83338941 186.97566074 -143.5 184 C-140.67547304 180.40025215 -137.84663936 176.80414599 -135.00390625 173.21875 C-134.51148438 172.59613281 -134.0190625 171.97351563 -133.51171875 171.33203125 C-132.57737254 170.15087661 -131.64130255 168.97108251 -130.703125 167.79296875 C-128.60098611 165.13195305 -126.62364781 162.45495197 -124.80859375 159.59375 C-124.21175781 158.7378125 -123.61492187 157.881875 -123 157 C-122.34 157 -121.68 157 -121 157 C-120.72220703 156.41573242 -120.44441406 155.83146484 -120.15820312 155.22949219 C-118.29840937 151.64946761 -115.87766958 148.50009615 -113.5 145.25 C-113.00113281 144.55261719 -112.50226563 143.85523438 -111.98828125 143.13671875 C-111.50746094 142.47800781 -111.02664062 141.81929687 -110.53125 141.140625 C-109.87479492 140.23618652 -109.87479492 140.23618652 -109.20507812 139.31347656 C-108.80740234 138.8800293 -108.40972656 138.44658203 -108 138 C-107.34 138 -106.68 138 -106 138 C-105.690625 136.9790625 -105.690625 136.9790625 -105.375 135.9375 C-104.15776432 133.33704196 -103.16926658 131.91130306 -101.30078125 129.8203125 C-97.95465785 125.99022491 -94.87664641 121.99458736 -91.8125 117.9375 C-87.16623732 111.818849 -82.47566873 105.74113467 -77.69067383 99.73022461 C-75.46036446 96.91507277 -73.34387181 94.06100988 -71.3125 91.1015625 C-70.1678125 89.56628906 -70.1678125 89.56628906 -69 88 C-68.34 88 -67.68 88 -67 88 C-66.76023438 87.28457031 -66.52046875 86.56914063 -66.2734375 85.83203125 C-64.80478356 82.56585301 -62.98144669 80.38330551 -60.625 77.6875 C-55.41531608 71.61920448 -50.6240042 65.27981466 -45.859375 58.859375 C-45.39466797 58.23482422 -44.92996094 57.61027344 -44.45117188 56.96679688 C-43.41622421 55.56411545 -42.39269057 54.15298239 -41.37695312 52.73632812 C-40.5793457 51.63708008 -40.5793457 51.63708008 -39.765625 50.515625 C-39.04294434 49.50677246 -39.04294434 49.50677246 -38.30566406 48.47753906 C-37.87479492 47.98995117 -37.44392578 47.50236328 -37 47 C-36.34 47 -35.68 47 -35 47 C-34.62875 46.17822266 -34.62875 46.17822266 -34.25 45.33984375 C-32.74360569 42.5200619 -30.93464489 40.10863087 -29 37.5625 C-28.60844727 37.04534424 -28.21689453 36.52818848 -27.81347656 35.99536133 C-24.393044 31.48728529 -20.93567712 27.00705681 -17.46875 22.53466797 C-15.22947545 19.63725221 -13.07025485 16.70763648 -11 13.6875 C-10.34 12.800625 -9.68 11.91375 -9 11 C-8.34 11 -7.68 11 -7 11 C-6.6596875 10.2265625 -6.6596875 10.2265625 -6.3125 9.4375 C-5.1517367 7.28179673 -3.92881151 5.27889028 -2.5625 3.25 C-2.15128906 2.63640625 -1.74007812 2.0228125 -1.31640625 1.390625 C-0.88199219 0.93171875 -0.44757813 0.4728125 0 0 Z " fill="#4E4143" transform="translate(242,11)"/>
<path d="M0 0 C0 3 0 3 -2 6 C-4.24306322 14.09950388 -4.37375794 22.46641807 -4.5625 30.8125 C-4.62270416 33.17327158 -4.68638564 35.5339576 -4.75390625 37.89453125 C-4.77783447 38.92425049 -4.8017627 39.95396973 -4.82641602 41.01489258 C-5.00536103 44.09219309 -5.32727973 46.99054705 -6 50 C-7.99609375 51.72265625 -7.99609375 51.72265625 -10.4375 53.0625 C-14.3233621 55.2143819 -15.67986287 56.72217858 -17 61 C-37.80327869 59.59836066 -37.80327869 59.59836066 -43 57 C-41.45987972 53.6211647 -39.49030777 50.83119558 -37.25 47.875 C-36.45851563 46.82957031 -35.66703125 45.78414062 -34.8515625 44.70703125 C-32.71711151 41.92051552 -30.56067181 39.1517199 -28.3984375 36.38671875 C-27.77549805 35.58959473 -27.15255859 34.7924707 -26.51074219 33.97119141 C-25.27215647 32.38912425 -24.03070533 30.80929542 -22.78613281 29.23193359 C-20.41052028 26.20233047 -18.16873758 23.2862644 -16.2109375 19.96484375 C-15.61152344 18.99224609 -15.61152344 18.99224609 -15 18 C-14.34 18 -13.68 18 -13 18 C-12.72365723 17.4112207 -12.44731445 16.82244141 -12.16259766 16.21582031 C-11.05942157 14.11325287 -9.8740704 12.39999538 -8.3984375 10.546875 C-7.90859375 9.928125 -7.41875 9.309375 -6.9140625 8.671875 C-6.15222656 7.72054687 -6.15222656 7.72054687 -5.375 6.75 C-4.859375 6.1003125 -4.34375 5.450625 -3.8125 4.78125 C-2.54485821 3.18496033 -1.27285639 1.59213474 0 0 Z " fill="#808172" transform="translate(93,202)"/>
<path d="M0 0 C0.99 0.495 0.99 0.495 2 1 C2 1.66 2 2.32 2 3 C2.66 3 3.32 3 4 3 C5.72682185 5.04967534 7.34312715 7.10116271 8.9375 9.25 C9.60168945 10.12978516 9.60168945 10.12978516 10.27929688 11.02734375 C11.13937291 12.16813014 11.99547412 13.31192641 12.84716797 14.45898438 C13.81607129 15.75413849 14.81310336 17.02818231 15.81640625 18.296875 C17 20 17 20 17 22 C17.66 22 18.32 22 19 22 C20.89234491 24.33885326 22.6756778 26.69030577 24.4375 29.125 C25.51815577 30.59346114 26.60021727 32.0608887 27.68359375 33.52734375 C28.2338623 34.2735498 28.78413086 35.01975586 29.35107422 35.78857422 C31.84460444 39.13272535 34.4140624 42.41455477 37 45.6875 C37.44400146 46.25033691 37.88800293 46.81317383 38.34545898 47.39306641 C40.31054537 49.8789513 42.28452578 52.32430323 44.375 54.70703125 C44.91125 55.46371094 45.4475 56.22039062 46 57 C45.67 57.99 45.34 58.98 45 60 C41.98017116 60.50682442 38.95937183 61.00563335 35.9375 61.5 C35.08994141 61.64308594 34.24238281 61.78617187 33.36914062 61.93359375 C28.50727611 62.72200421 23.92471814 63.16037074 19 63 C19 60.69 19 58.38 19 56 C18.0925 55.7525 17.185 55.505 16.25 55.25 C12.65586778 53.86764145 11.27988816 53.08027443 9 50 C8.39543243 47.02936065 8.39971669 44.08665911 8.375 41.0625 C8.31714111 39.2720244 8.25582334 37.4816579 8.19140625 35.69140625 C8.14717529 34.29752686 8.14717529 34.29752686 8.10205078 32.87548828 C7.93168976 28.0752202 7.66249124 23.29034778 7.3125 18.5 C7.2503833 17.16594116 7.2503833 17.16594116 7.18701172 15.80493164 C6.99660009 13.38689115 6.77758582 11.29850258 6 9 C3.07821407 6.54017132 3.07821407 6.54017132 0 5 C-0.375 2.25 -0.375 2.25 0 0 Z " fill="#808171" transform="translate(388,200)"/>
<path d="M0 0 C0.99 0 1.98 0 3 0 C3.268125 1.0725 3.53625 2.145 3.8125 3.25 C4.87631151 6.60940478 5.83366479 8.34131588 8 11 C8 11.66 8 12.32 8 13 C8.66 13 9.32 13 10 13 C14 18.29411765 14 18.29411765 14 22 C12.82824219 21.90460937 11.65648437 21.80921875 10.44921875 21.7109375 C1.66432039 21.06661187 -6.38551145 20.70406803 -15 23 C-15.33 22.01 -15.66 21.02 -16 20 C-14.8203125 18.24609375 -14.8203125 18.24609375 -13.125 16.4375 C-10.77689547 13.91862639 -10.77689547 13.91862639 -9 11 C-8.34 11 -7.68 11 -7 11 C-6.773125 10.484375 -6.54625 9.96875 -6.3125 9.4375 C-5.1517367 7.28179673 -3.92881151 5.27889028 -2.5625 3.25 C-2.15128906 2.63640625 -1.74007812 2.0228125 -1.31640625 1.390625 C-0.88199219 0.93171875 -0.44757813 0.4728125 0 0 Z " fill="#22282C" transform="translate(242,11)"/>
<path d="M0 0 C0.99 0.495 0.99 0.495 2 1 C1.44531868 4.55263592 0.40579857 5.84355341 -2.46484375 7.953125 C-3.17737305 8.48574951 -3.88990234 9.01837402 -4.62402344 9.56713867 C-5.3874707 10.12248291 -6.15091797 10.67782715 -6.9375 11.25 C-8.50451893 12.41714661 -10.07092871 13.58511154 -11.63671875 14.75390625 C-12.39388184 15.31480957 -13.15104492 15.87571289 -13.93115234 16.45361328 C-16.41592078 18.31088532 -18.84062477 20.23362855 -21.25 22.1875 C-25.32224236 25.4739909 -29.45407201 28.67556864 -33.60888672 31.85693359 C-36.94629215 34.41454421 -40.27132096 36.98711735 -43.5859375 39.57421875 C-44.37871094 40.19280762 -45.17148437 40.81139648 -45.98828125 41.44873047 C-47.54126619 42.66144395 -49.09339587 43.87525374 -50.64453125 45.09033203 C-52.75499316 46.7376021 -54.87576904 48.37054333 -57 50 C-57.65645508 50.5161084 -58.31291016 51.0322168 -58.98925781 51.56396484 C-60.60118582 52.79002755 -62.29532458 53.90655435 -64 55 C-64.99 54.67 -65.98 54.34 -67 54 C-65.515 53.505 -65.515 53.505 -64 53 C-64.33 50.69 -64.66 48.38 -65 46 C-64.01 46 -63.02 46 -62 46 C-61.34 46.66 -60.68 47.32 -60 48 C-59.34 48 -58.68 48 -58 48 C-58 47.34 -58 46.68 -58 46 C-57.34 46 -56.68 46 -56 46 C-56 45.34 -56 44.68 -56 44 C-55.01 44 -54.02 44 -53 44 C-53 42.68 -53 41.36 -53 40 C-49.535 39.505 -49.535 39.505 -46 39 C-45.67 37.68 -45.34 36.36 -45 35 C-44.01 35 -43.02 35 -42 35 C-41.67 33.68 -41.34 32.36 -41 31 C-40.401875 30.938125 -39.80375 30.87625 -39.1875 30.8125 C-36.14245324 29.68148263 -35.55509485 27.75675905 -34 25 C-33.34 25 -32.68 25 -32 25 C-32 24.34 -32 23.68 -32 23 C-29 22 -29 22 -26 22 C-23.69835341 19.8709769 -21.58202732 17.65478074 -19.5 15.3125 C-18 14 -18 14 -15.5625 13.125 C-12.35195083 11.71549061 -11.15556919 9.71184511 -9 7 C-7.67696283 6.6278958 -6.34262065 6.29369827 -5 6 C-2.85307587 4.09843863 -1.28436461 2.56872921 0 0 Z " fill="#23312E" transform="translate(458,290)"/>
<path d="M0 0 C0 3 0 3 -2 6 C-4.24306322 14.09950388 -4.37375794 22.46641807 -4.5625 30.8125 C-4.62270416 33.17327158 -4.68638564 35.5339576 -4.75390625 37.89453125 C-4.77783447 38.92425049 -4.8017627 39.95396973 -4.82641602 41.01489258 C-5.00536103 44.09219309 -5.32727973 46.99054705 -6 50 C-7.99609375 51.72265625 -7.99609375 51.72265625 -10.4375 53.0625 C-14.80549079 55.48137131 -14.95495817 55.88739542 -17 61 C-20.96 60.67 -24.92 60.34 -29 60 C-29 59.67 -29 59.34 -29 59 C-25.7 59 -22.4 59 -19 59 C-18.896875 58.236875 -18.79375 57.47375 -18.6875 56.6875 C-17.95288806 53.81583516 -17.3283935 52.76957906 -15 51 C-14.34 51 -13.68 51 -13 51 C-13 50.34 -13 49.68 -13 49 C-12.01 48.505 -12.01 48.505 -11 48 C-10.54961708 45.15051852 -10.20383981 42.3672059 -9.9375 39.5 C-9.11828559 31.11828559 -9.11828559 31.11828559 -8 30 C-7.7980169 28.65858692 -7.65335278 27.30840677 -7.53515625 25.95703125 C-7.45716797 25.13009766 -7.37917969 24.30316406 -7.29882812 23.45117188 C-7.14304237 21.71177887 -6.98934722 19.97219718 -6.83789062 18.23242188 C-6.14390951 10.937157 -4.97545965 5.63885427 0 0 Z " fill="#636258" transform="translate(93,202)"/>
<path d="M0 0 C0.99 0.495 0.99 0.495 2 1 C2 1.66 2 2.32 2 3 C2.66 3 3.32 3 4 3 C9.46519918 8.26102102 11.02053978 13.50251022 11.4375 20.875 C11.54167236 22.23081177 11.54167236 22.23081177 11.64794922 23.61401367 C12.22992079 32.45396123 11.79610192 41.18908819 11 50 C11.99 50 12.98 50 14 50 C15.6875 51.5 15.6875 51.5 17 53 C16.67 53.66 16.34 54.32 16 55 C10.125 52.25 10.125 52.25 9 50 C8.81115526 47.05941767 8.67266535 44.13116262 8.5625 41.1875 C8.38578907 37.45777134 8.19286458 33.72892397 8 30 C7.95294922 29.03143066 7.90589844 28.06286133 7.85742188 27.06494141 C7.7064301 24.20708767 7.51463187 21.3546431 7.3125 18.5 C7.27133057 17.61078857 7.23016113 16.72157715 7.18774414 15.80541992 C6.99667411 13.38746029 6.77757661 11.29847536 6 9 C3.07821407 6.54017132 3.07821407 6.54017132 0 5 C-0.375 2.25 -0.375 2.25 0 0 Z " fill="#6F6B61" transform="translate(388,200)"/>
<path d="M0 0 C0.66 0.33 1.32 0.66 2 1 C0.93337724 4.79243648 -0.84621824 7.01527058 -3.5 9.8125 C-7.10544927 13.74776167 -8.15970627 16.77150569 -9 22 C-8.01 21.67 -7.02 21.34 -6 21 C-5.34 21.99 -4.68 22.98 -4 24 C-3.34 24 -2.68 24 -2 24 C-1.67 25.32 -1.34 26.64 -1 28 C-4.70503641 27.39665691 -6.85968148 25.77525763 -9.75 23.4375 C-10.94882812 22.47650391 -10.94882812 22.47650391 -12.171875 21.49609375 C-12.77515625 21.00238281 -13.3784375 20.50867188 -14 20 C-13.125 15.25 -13.125 15.25 -12 13 C-11.34 13 -10.68 13 -10 13 C-9.7525 12.360625 -9.505 11.72125 -9.25 11.0625 C-8.8375 10.381875 -8.425 9.70125 -8 9 C-7.360625 8.87625 -6.72125 8.7525 -6.0625 8.625 C-3.84576455 8.18808312 -3.84576455 8.18808312 -2.734375 6.15234375 C-2.40953125 5.42144531 -2.0846875 4.69054687 -1.75 3.9375 C-1.41484375 3.20402344 -1.0796875 2.47054688 -0.734375 1.71484375 C-0.49203125 1.14894531 -0.2496875 0.58304687 0 0 Z " fill="#1C262A" transform="translate(38,274)"/>
<path d="M0 0 C2 1.8125 2 1.8125 4 4 C4 4.99 4 5.98 4 7 C2.82824219 6.90460937 1.65648437 6.80921875 0.44921875 6.7109375 C-8.33567961 6.06661187 -16.38551145 5.70406803 -25 8 C-25.33 7.01 -25.66 6.02 -26 5 C-24.35 3.68 -22.7 2.36 -21 1 C-20.34 1.66 -19.68 2.32 -19 3 C-12.20374835 3.72280577 -5.76295918 3.95174344 0 0 Z " fill="#363337" transform="translate(252,26)"/>
<path d="M0 0 C0.33 0 0.66 0 1 0 C2.0755733 15.02388107 2.0755733 15.02388107 -0.48828125 19.734375 C-2.375 21.75 -2.375 21.75 -4.2734375 23.359375 C-6.50320761 25.24968447 -6.50320761 25.24968447 -8 30 C-11.96 29.67 -15.92 29.34 -20 29 C-20 28.67 -20 28.34 -20 28 C-16.7 28 -13.4 28 -10 28 C-9.896875 27.236875 -9.79375 26.47375 -9.6875 25.6875 C-8.95288806 22.81583516 -8.3283935 21.76957906 -6 20 C-5.34 20 -4.68 20 -4 20 C-4 19.34 -4 18.68 -4 18 C-3.34 17.67 -2.68 17.34 -2 17 C-1.52381188 14.12817413 -1.15832403 11.32879853 -0.875 8.4375 C-0.78863281 7.63119141 -0.70226562 6.82488281 -0.61328125 5.99414062 C-0.40056372 3.99695936 -0.19922145 1.99857263 0 0 Z " fill="#706C63" transform="translate(84,233)"/>
<path d="M0 0 C18.24354244 2.08118081 18.24354244 2.08118081 27 5 C26.67 5.66 26.34 6.32 26 7 C24.74445313 6.77183594 23.48890625 6.54367187 22.1953125 6.30859375 C9.6469998 4.11288049 9.6469998 4.11288049 -3 5 C-2.01 3.35 -1.02 1.7 0 0 Z " fill="#4C4F49" transform="translate(48,259)"/>
<path d="M0 0 C-0.33 0.66 -0.66 1.32 -1 2 C-9.5501883 3.80826437 -18.28135909 4.32626931 -27 4 C-23.17584609 0.22895934 -18.58667655 -0.05678712 -13.5 -0.8125 C-12.64535156 -0.95880859 -11.79070312 -1.10511719 -10.91015625 -1.25585938 C-9.67072266 -1.44825195 -9.67072266 -1.44825195 -8.40625 -1.64453125 C-7.65666016 -1.76159424 -6.90707031 -1.87865723 -6.13476562 -1.99926758 C-3.59550667 -2.00013878 -2.16194259 -1.28143455 0 0 Z " fill="#444945" transform="translate(437,261)"/>
<path d="M0 0 C5.75 1.625 5.75 1.625 8 5 C9.32 5 10.64 5 12 5 C12.33 5.99 12.66 6.98 13 8 C15.78462997 11.01041078 18.64675101 13.64030627 22 16 C21.67 16.99 21.34 17.98 21 19 C20.67 18.34 20.34 17.68 20 17 C18.68241166 16.30273162 17.34639858 15.63986959 16 15 C13.37131762 13.30081405 10.84852798 11.45885468 8.3125 9.625 C7.27899414 8.90183594 7.27899414 8.90183594 6.22460938 8.1640625 C5.56912109 7.6896875 4.91363281 7.2153125 4.23828125 6.7265625 C3.64055908 6.29939941 3.04283691 5.87223633 2.42700195 5.43212891 C0.70143726 3.70036458 0.38729689 2.38097036 0 0 Z " fill="#48463D" transform="translate(129,373)"/>
<path d="M0 0 C0.99 0.495 0.99 0.495 2 1 C2 1.66 2 2.32 2 3 C2.66 3 3.32 3 4 3 C13.8405369 13.43693307 10.12790201 36.50928979 10 50 C9.67 50 9.34 50 9 50 C8.95101563 48.79988281 8.90203125 47.59976563 8.8515625 46.36328125 C8.65793463 41.88671368 8.42253752 37.41335465 8.16650391 32.93994141 C8.05544799 30.9790391 7.950961 29.01775379 7.85302734 27.05615234 C7.70262375 24.20134889 7.51248821 21.3517116 7.3125 18.5 C7.2508667 17.16642456 7.2508667 17.16642456 7.18798828 15.8059082 C6.99671313 13.38784422 6.77761375 11.29858515 6 9 C3.07821407 6.54017132 3.07821407 6.54017132 0 5 C-0.375 2.25 -0.375 2.25 0 0 Z " fill="#625F57" transform="translate(388,200)"/>
<path d="M0 0 C-1.54525108 4.33276284 -4.88269814 6.54179501 -8.4375 9.1875 C-9.02337891 9.63802734 -9.60925781 10.08855469 -10.21289062 10.55273438 C-12.78873274 12.50288953 -14.91455304 13.97151768 -18 15 C-18.66 14.34 -19.32 13.68 -20 13 C-19.38511719 12.60167969 -18.77023437 12.20335937 -18.13671875 11.79296875 C-17.32847656 11.26316406 -16.52023437 10.73335938 -15.6875 10.1875 C-14.88699219 9.66542969 -14.08648437 9.14335937 -13.26171875 8.60546875 C-10.07414403 6.34278618 -8.17519564 4.26279346 -6 1 C-3.88864324 0.27422112 -2.22998296 0 0 0 Z " fill="#313630" transform="translate(390,346)"/>
<path d="M0 0 C0.99 0 1.98 0 3 0 C1.70439388 3.88681835 -0.09156368 4.85421182 -3.375 7.25 C-4.84066406 8.34054687 -4.84066406 8.34054687 -6.3359375 9.453125 C-7.21507812 9.96359375 -8.09421875 10.4740625 -9 11 C-9.99 10.67 -10.98 10.34 -12 10 C-10.47827837 6.19569593 -9.48953481 4.3161579 -6 2.0625 C-3 1 -3 1 0 2 C0 1.34 0 0.68 0 0 Z " fill="#403D36" transform="translate(349,376)"/>
<path d="M0 0 C-1.30324219 0.39832031 -1.30324219 0.39832031 -2.6328125 0.8046875 C-3.78523438 1.15789062 -4.93765625 1.51109375 -6.125 1.875 C-7.26195312 2.22304688 -8.39890625 2.57109375 -9.5703125 2.9296875 C-10.70210938 3.28289062 -11.83390625 3.63609375 -13 4 C-14.0621875 4.33 -15.124375 4.66 -16.21875 5 C-19.54116744 6.19457706 -22.13690962 7.95493544 -25 10 C-25 8.68 -25 7.36 -25 6 C-18.28547084 -0.21931443 -8.7913695 -2.63741085 0 0 Z " fill="#363737" transform="translate(425,265)"/>
<path d="M0 0 C1.2065625 0.0309375 1.2065625 0.0309375 2.4375 0.0625 C2.4375 1.3825 2.4375 2.7025 2.4375 4.0625 C5.60992358 6.98446908 8.36733584 8.70577861 12.4375 10.0625 C12.1075 11.0525 11.7775 12.0425 11.4375 13.0625 C7.95419784 12.41744404 5.34317134 11.08032732 2.4375 9.0625 C2.4375 8.4025 2.4375 7.7425 2.4375 7.0625 C1.633125 6.815 0.82875 6.5675 0 6.3125 C-2.5625 5.0625 -2.5625 5.0625 -3.4375 3 C-3.47875 2.360625 -3.52 1.72125 -3.5625 1.0625 C-2.5625 0.0625 -2.5625 0.0625 0 0 Z " fill="#232A2D" transform="translate(96.5625,343.9375)"/>
<path d="M0 0 C0.84433594 0.13857422 1.68867187 0.27714844 2.55859375 0.41992188 C3.43128906 0.57138672 4.30398437 0.72285156 5.203125 0.87890625 C6.09128906 1.02650391 6.97945312 1.17410156 7.89453125 1.32617188 C10.08203836 1.69075639 12.26802142 2.06272691 14.453125 2.44140625 C14.453125 3.10140625 14.453125 3.76140625 14.453125 4.44140625 C15.773125 5.10140625 17.093125 5.76140625 18.453125 6.44140625 C14.08069034 6.70640229 10.63313029 5.67485043 6.453125 4.44140625 C3.87024362 3.89495189 1.2821012 3.39374495 -1.3125 2.90625 C-3.546875 2.44140625 -3.546875 2.44140625 -6.546875 1.44140625 C-6.876875 2.10140625 -7.206875 2.76140625 -7.546875 3.44140625 C-7.876875 2.45140625 -8.206875 1.46140625 -8.546875 0.44140625 C-5.44172195 -0.52663449 -3.1956854 -0.53981172 0 0 Z " fill="#343838" transform="translate(59.546875,262.55859375)"/>
<path d="M0 0 C1.5 1.25 1.5 1.25 3 3 C3 4.32 3 5.64 3 7 C1.989375 7.103125 0.97875 7.20625 -0.0625 7.3125 C-4.21218208 8.03704767 -7.21356263 9.22269266 -11 11 C-11 9.68 -11 8.36 -11 7 C-10.41734375 6.89816406 -9.8346875 6.79632813 -9.234375 6.69140625 C-6.62780725 5.88482847 -5.26464586 4.75842991 -3.25 2.9375 C-2.63640625 2.38964844 -2.0228125 1.84179688 -1.390625 1.27734375 C-0.93171875 0.85582031 -0.4728125 0.43429688 0 0 Z " fill="#403739" transform="translate(166,117)"/>
<path d="M0 0 C1.32 0.33 2.64 0.66 4 1 C-4.33333333 12.44444444 -4.33333333 12.44444444 -8.25 13.75 C-9.11625 13.87375 -9.11625 13.87375 -10 14 C-10 13.34 -10 12.68 -10 12 C-9.34 12 -8.68 12 -8 12 C-7.79375 11.319375 -7.5875 10.63875 -7.375 9.9375 C-5.54591134 6.02990149 -2.89720966 3.16142061 0 0 Z " fill="#5E5E43" transform="translate(183,87)"/>
<path d="M0 0 C0.66 0 1.32 0 2 0 C2.33 1.65 2.66 3.3 3 5 C0.36 7.31 -2.28 9.62 -5 12 C-5.99 11.34 -6.98 10.68 -8 10 C-6.85500893 8.52018126 -5.708983 7.04116318 -4.5625 5.5625 C-3.60537109 4.32693359 -3.60537109 4.32693359 -2.62890625 3.06640625 C-1 1 -1 1 0 0 Z " fill="#4D4E40" transform="translate(163,113)"/>
<path d="M0 0 C1.38978246 2.77956492 0.61356169 4.12046386 -0.25 7.0625 C-0.50265625 7.96097656 -0.7553125 8.85945312 -1.015625 9.78515625 C-1.34046875 10.51605469 -1.6653125 11.24695313 -2 12 C-2.99 12.33 -3.98 12.66 -5 13 C-6.37195574 14.29355827 -7.71182656 15.62298702 -9 17 C-9.63061523 15.20214844 -9.63061523 15.20214844 -10 13 C-8.43264967 10.57426902 -6.89069827 8.45937639 -5.0625 6.25 C-4.58103516 5.64800781 -4.09957031 5.04601562 -3.60351562 4.42578125 C-2.41364626 2.94138977 -1.20826626 1.46945562 0 0 Z " fill="#5F564D" transform="translate(118,170)"/>
<path d="M0 0 C0.66 0.33 1.32 0.66 2 1 C1.125 6.75 1.125 6.75 0 9 C-0.66 9 -1.32 9 -2 9 C-2.33 9.99 -2.66 10.98 -3 12 C-5.0625 12.6875 -5.0625 12.6875 -7 13 C-6.65986985 7.55791766 -3.29703472 4.06331802 0 0 Z " fill="#3D5036" transform="translate(198,67)"/>
<path d="M0 0 C0.66 0.33 1.32 0.66 2 1 C1.61501271 3.43293744 1.29096937 4.71422567 -0.49047852 6.46386719 C-1.11365967 6.90375977 -1.73684082 7.34365234 -2.37890625 7.796875 C-3.05244141 8.28027344 -3.72597656 8.76367188 -4.41992188 9.26171875 C-5.48049805 9.99841797 -5.48049805 9.99841797 -6.5625 10.75 C-7.27341797 11.25660156 -7.98433594 11.76320313 -8.71679688 12.28515625 C-10.47101432 13.53312303 -12.23463359 14.76785497 -14 16 C-14.33 15.01 -14.66 14.02 -15 13 C-14.38125 12.566875 -13.7625 12.13375 -13.125 11.6875 C-10.7802755 10.00259517 -10.7802755 10.00259517 -9 7 C-8.38125 6.855625 -7.7625 6.71125 -7.125 6.5625 C-4.21867716 5.79317925 -2.95626583 4.2260956 -1 2 C-0.67 1.34 -0.34 0.68 0 0 Z " fill="#273733" transform="translate(458,290)"/>
<path d="M0 0 C0.33 0 0.66 0 1 0 C1.02712325 2.87506421 1.04689851 5.74986908 1.0625 8.625 C1.07087891 9.43324219 1.07925781 10.24148437 1.08789062 11.07421875 C1.10579349 15.47832438 1.06268485 19.69612637 0 24 C-2.0625 25.875 -2.0625 25.875 -4 27 C-4.66 26.67 -5.32 26.34 -6 26 C-4.625 24 -4.625 24 -3 22 C-2.34 22 -1.68 22 -1 22 C-1.01160156 21.0821875 -1.02320312 20.164375 -1.03515625 19.21875 C-1.08301493 12.70996973 -1.02900697 6.43129355 0 0 Z " fill="#5B554C" transform="translate(87,228)"/>
<path d="M0 0 C3.88975419 3.59054233 6.89732195 7.73898882 10 12 C9.01 12.99 8.02 13.98 7 15 C7 14.34 7 13.68 7 13 C6.34 13 5.68 13 5 13 C3.68 10.36 2.36 7.72 1 5 C1 5.66 1 6.32 1 7 C0.34 6.67 -0.32 6.34 -1 6 C-0.67 4.02 -0.34 2.04 0 0 Z " fill="#69604C" transform="translate(364,169)"/>
<path d="M0 0 C0.66 0.33 1.32 0.66 2 1 C1.49396008 3.16874252 1.00016187 4.99967627 0 7 C-0.66 7 -1.32 7 -2 7 C-2.2475 7.556875 -2.495 8.11375 -2.75 8.6875 C-4.21606015 11.39971127 -6.02989471 13.63587365 -8 16 C-8.99 15.67 -9.98 15.34 -11 15 C-7.37 10.05 -3.74 5.1 0 0 Z " fill="#6B6548" transform="translate(134,149)"/>
<path d="M0 0 C2 1.8125 2 1.8125 4 4 C4 4.99 4 5.98 4 7 C-2.625 7.25 -2.625 7.25 -6 5 C-5.67 4.01 -5.34 3.02 -5 2 C-2.4375 0.8125 -2.4375 0.8125 0 0 Z " fill="#292B2E" transform="translate(252,26)"/>
<path d="M0 0 C3 1 3 1 4.375 2.5625 C5.97558548 4.27233291 5.97558548 4.27233291 8.6875 4.1875 C9.450625 4.125625 10.21375 4.06375 11 4 C11 5.65 11 7.3 11 9 C5.55791766 8.65986985 2.06331802 5.29703472 -2 2 C-1.34 1.34 -0.68 0.68 0 0 Z " fill="#3A3A34" transform="translate(109,357)"/>
<path d="M0 0 C0 0.66 0 1.32 0 2 C-1.65 2.66 -3.3 3.32 -5 4 C-5 4.66 -5 5.32 -5 6 C-8 8 -8 8 -11 8 C-10.43877278 4.74488211 -9.66879905 3.00159929 -7 1 C-4.5870449 0.3526218 -2.49412245 0 0 0 Z " fill="#403F36" transform="translate(337,388)"/>
<path d="M0 0 C1 3 1 3 0.3125 5.375 C-1.13504273 8.27008545 -2.8982393 10.54794585 -5 13 C-5.99 12.01 -6.98 11.02 -8 10 C-5.36 6.7 -2.72 3.4 0 0 Z " fill="#646146" transform="translate(172,101)"/>
<path d="M0 0 C0.33 1.32 0.66 2.64 1 4 C-0.125 5.8125 -0.125 5.8125 -2 7 C-4.6875 6.6875 -4.6875 6.6875 -7 6 C-7.33 4.68 -7.66 3.36 -8 2 C-5.36 1.34 -2.72 0.68 0 0 Z " fill="#4A4B47" transform="translate(246,456)"/>
<path d="M0 0 C1 2 1 2 1 5 C0 7.1875 0 7.1875 -1 9 C-2.65 9 -4.3 9 -6 9 C-5.45276317 5.62537285 -4.9451 3.91765 -3 1 C-2.01 0.67 -1.02 0.34 0 0 Z " fill="#25332D" transform="translate(47,263)"/>
<path d="M0 0 C4.21814817 3.9700218 7.61227103 8.30840284 11 13 C10.34 13.66 9.68 14.32 9 15 C9 14.01 9 13.02 9 12 C8.01 12 7.02 12 6 12 C4.39453125 10.13671875 4.39453125 10.13671875 2.8125 7.6875 C2.28269531 6.88699219 1.75289063 6.08648437 1.20703125 5.26171875 C0 3 0 3 0 0 Z " fill="#6D674D" transform="translate(352,154)"/>
<path d="M0 0 C1.27875 -0.061875 2.5575 -0.12375 3.875 -0.1875 C4.95394531 -0.23970703 4.95394531 -0.23970703 6.0546875 -0.29296875 C6.69664062 -0.19628906 7.33859375 -0.09960938 8 0 C8.66 0.99 9.32 1.98 10 3 C9.67 3.99 9.34 4.98 9 6 C8.34 5.34 7.68 4.68 7 4 C4.31160615 3.73008094 1.70858064 3.91262643 -1 4 C-0.67 2.68 -0.34 1.36 0 0 Z " fill="#3D3937" transform="translate(321,123)"/>
<path d="M0 0 C0 3.95702268 -1.23833431 6.47666862 -3 10 C-6.19354839 13 -6.19354839 13 -9 13 C-7.50923566 9.7173068 -5.61379679 7.06922559 -3.375 4.25 C-2.74335938 3.45078125 -2.11171875 2.6515625 -1.4609375 1.828125 C-0.97882813 1.22484375 -0.49671875 0.6215625 0 0 Z " fill="#5A564D" transform="translate(222,37)"/>
<path d="M0 0 C2.31 0 4.62 0 7 0 C8.0625 1.875 8.0625 1.875 9 4 C8.67 4.66 8.34 5.32 8 6 C4.65750371 5.40312566 2.53563658 4.26396123 0 2 C0 1.34 0 0.68 0 0 Z " fill="#3E3D35" transform="translate(152,392)"/>
<path d="M0 0 C0.92321855 3.03905386 1.02162761 5.39994788 0.66015625 8.546875 C0.56669922 9.39121094 0.47324219 10.23554688 0.37695312 11.10546875 C0.27318359 11.97816406 0.16941406 12.85085937 0.0625 13.75 C-0.03740234 14.63816406 -0.13730469 15.52632812 -0.24023438 16.44140625 C-0.48715401 18.62840871 -0.74061635 20.81444667 -1 23 C-1.33 23 -1.66 23 -2 23 C-2.0580476 19.72924117 -2.09361165 16.45861476 -2.125 13.1875 C-2.14175781 12.25873047 -2.15851563 11.32996094 -2.17578125 10.37304688 C-2.18222656 9.48037109 -2.18867187 8.58769531 -2.1953125 7.66796875 C-2.20578613 6.84578857 -2.21625977 6.0236084 -2.22705078 5.17651367 C-2 3 -2 3 0 0 Z " fill="#727468" transform="translate(87,209)"/>
<path d="M0 0 C0.33 0 0.66 0 1 0 C1.04125 0.763125 1.0825 1.52625 1.125 2.3125 C1.75579109 5.30607568 1.75579109 5.30607568 4.9375 6.5625 C5.948125 7.036875 6.95875 7.51125 8 8 C9.375 10.1875 9.375 10.1875 10 12 C5.98577764 11.38242733 3.17090547 9.46625981 0 7 C-1.35995558 4.00809773 -1.06617669 3.19853006 0 0 Z " fill="#283534" transform="translate(63,318)"/>
<path d="M0 0 C0.66 0.99 1.32 1.98 2 3 C1 4 1 4 -0.84765625 4.09765625 C-2.8984375 4.06510417 -4.94921875 4.03255208 -7 4 C-7 3.34 -7 2.68 -7 2 C-7.99 1.67 -8.98 1.34 -10 1 C-6.61045199 -0.04293785 -3.53672026 -0.30754089 0 0 Z " fill="#3C3639" transform="translate(191,118)"/>
<path d="M0 0 C0.66 0 1.32 0 2 0 C2.33 1.32 2.66 2.64 3 4 C6.3 4.33 9.6 4.66 13 5 C13 5.33 13 5.66 13 6 C6.565 6.495 6.565 6.495 0 7 C0 4.69 0 2.38 0 0 Z " fill="#6C6962" transform="translate(407,256)"/>
<path d="M0 0 C0.33 0.99 0.66 1.98 1 3 C0.01 3.33 -0.98 3.66 -2 4 C-2.73080266 5.97746603 -3.39421747 7.98072489 -4 10 C-4.99 11.485 -4.99 11.485 -6 13 C-6.99 13 -7.98 13 -9 13 C-7.50923566 9.7173068 -5.61379679 7.06922559 -3.375 4.25 C-2.74335937 3.45078125 -2.11171875 2.6515625 -1.4609375 1.828125 C-0.97882812 1.22484375 -0.49671875 0.6215625 0 0 Z " fill="#313F3D" transform="translate(40,270)"/>
<path d="M0 0 C0.99 1.32 1.98 2.64 3 4 C0.47211993 6.79872437 -1.20411134 8.45773019 -5 9 C-5 4.61031544 -2.87194899 3.23094261 0 0 Z " fill="#595046" transform="translate(205,59)"/>
<path d="M0 0 C3.78383679 0.92493788 5.56693694 1.39371171 7.875 4.625 C8.431875 5.800625 8.431875 5.800625 9 7 C4.71193127 6.52354792 2.73352513 5.34097516 0 2 C0 1.34 0 0.68 0 0 Z " fill="#3C3933" transform="translate(129,373)"/>
<path d="M0 0 C2 3 2 3 1.625 5.1875 C1.41875 5.785625 1.2125 6.38375 1 7 C0.01 6.67 -0.98 6.34 -2 6 C-2.99 7.32 -3.98 8.64 -5 10 C-5.66 9.67 -6.32 9.34 -7 9 C-4.69 6.03 -2.38 3.06 0 0 Z " fill="#5A594D" transform="translate(101,192)"/>
<path d="M0 0 C0.99 0.33 1.98 0.66 3 1 C3 1.66 3 2.32 3 3 C3.66 3.33 4.32 3.66 5 4 C1.66666667 4 -1.66666667 4 -5 4 C-5 3.34 -5 2.68 -5 2 C-6.32 2.33 -7.64 2.66 -9 3 C-9 2.34 -9 1.68 -9 1 C-7.700625 1.020625 -6.40125 1.04125 -5.0625 1.0625 C-3.70834367 1.08399454 -2.35243917 1.07148199 -1 1 C-0.67 0.67 -0.34 0.34 0 0 Z " fill="#3C4334" transform="translate(333,131)"/>
<path d="M0 0 C2.02045442 0.60183749 4.02111039 1.27306096 6 2 C6.33 2.66 6.66 3.32 7 4 C3.7 4.33 0.4 4.66 -3 5 C-2.01 3.35 -1.02 1.7 0 0 Z " fill="#3E4F3F" transform="translate(48,259)"/>
<path d="M0 0 C1.32 0.33 2.64 0.66 4 1 C2.02 3.31 0.04 5.62 -2 8 C-2.66 7.01 -3.32 6.02 -4 5 C-2.68 3.35 -1.36 1.7 0 0 Z " fill="#5B5349" transform="translate(183,87)"/>
<path d="M0 0 C4.875 4.625 4.875 4.625 6 8 C3.03 7.505 3.03 7.505 0 7 C-1.125 2.25 -1.125 2.25 0 0 Z " fill="#585149" transform="translate(259,35)"/>
<path d="M0 0 C0.99 0.33 1.98 0.66 3 1 C2.67 3.31 2.34 5.62 2 8 C-0.50037734 5.82575883 -1.43628586 4.26954202 -2 1 C-1.34 0.67 -0.68 0.34 0 0 Z " fill="#1D262C" transform="translate(442,271)"/>
<path d="M0 0 C2 2 2 2 2.125 5.125 C2.08375 6.07375 2.0425 7.0225 2 8 C0.68 7.34 -0.64 6.68 -2 6 C-1.125 1.125 -1.125 1.125 0 0 Z " fill="#273632" transform="translate(26,288)"/>
<path d="M0 0 C0 0.66 0 1.32 0 2 C-2.8125 4.6875 -2.8125 4.6875 -6 7 C-6.99 6.67 -7.98 6.34 -9 6 C-6.65405099 2.48107648 -4.44674901 0 0 0 Z " fill="#3A5234" transform="translate(319,402)"/>
<path d="M0 0 C2.375 0.1875 2.375 0.1875 5 1 C6.3125 3.5625 6.3125 3.5625 7 6 C4.03824877 5.38722388 2.61941217 4.74627478 0 3 C0 2.01 0 1.02 0 0 Z " fill="#262F33" transform="translate(85,339)"/>
<path d="M0 0 C1.37562854 1.28965176 2.70766393 2.62689293 4 4 C4 4.66 4 5.32 4 6 C4.66 6 5.32 6 6 6 C6 6.66 6 7.32 6 8 C4.35 7.67 2.7 7.34 1 7 C0.34 5.02 -0.32 3.04 -1 1 C-0.67 0.67 -0.34 0.34 0 0 Z " fill="#1C282A" transform="translate(75,328)"/>
<path d="M0 0 C0.45375 0.495 0.9075 0.99 1.375 1.5 C2.87635519 3.22609337 2.87635519 3.22609337 5 3 C5.33 4.32 5.66 5.64 6 7 C2.20411134 6.45773019 0.52788007 4.79872437 -2 2 C-1.34 1.34 -0.68 0.68 0 0 Z " fill="#212E2E" transform="translate(31,295)"/>
<path d="M0 0 C2.46800047 1.15173355 4.04783565 2.04783565 6 4 C6 4.99 6 5.98 6 7 C5.01 7 4.02 7 3 7 C0 2.77777778 0 2.77777778 0 0 Z " fill="#1F2E2E" transform="translate(446,276)"/>
<path d="M0 0 C0.99 0.495 0.99 0.495 2 1 C2 1.66 2 2.32 2 3 C2.66 3 3.32 3 4 3 C5.38938077 4.96147874 6.7260411 6.96166576 8 9 C5.0280615 7.87548273 2.66559313 6.77706209 0 5 C-0.1875 2.375 -0.1875 2.375 0 0 Z " fill="#5D6E46" transform="translate(388,200)"/>
<path d="M0 0 C1.67542976 0.28604898 3.34385343 0.61781233 5 1 C4.01 1.495 4.01 1.495 3 2 C2.67 2.99 2.34 3.98 2 5 C-0.0625 5.6875 -0.0625 5.6875 -2 6 C-1.125 1.125 -1.125 1.125 0 0 Z " fill="#3F3B3A" transform="translate(193,74)"/>
<path d="M0 0 C2.97 0.495 2.97 0.495 6 1 C6 1.99 6 2.98 6 4 C6.99 4.33 7.98 4.66 9 5 C5.93606987 5.25532751 4.36766788 5.21861333 1.6875 3.625 C1.130625 3.08875 0.57375 2.5525 0 2 C0 1.34 0 0.68 0 0 Z " fill="#212C2B" transform="translate(53,315)"/>
<path d="M0 0 C0.66 0.66 1.32 1.32 2 2 C1.625 4.125 1.625 4.125 1 6 C-0.65 6.33 -2.3 6.66 -4 7 C-3.34 6.67 -2.68 6.34 -2 6 C-1.40929986 4.05396726 -1.40929986 4.05396726 -1 2 C-0.67 1.34 -0.34 0.68 0 0 Z " fill="#3E3A35" transform="translate(364,362)"/>
<path d="M0 0 C0.66 0.33 1.32 0.66 2 1 C2.99 1.33 3.98 1.66 5 2 C4.67 2.99 4.34 3.98 4 5 C0.73045798 4.43628586 -0.82575883 3.50037734 -3 1 C-2.01 0.67 -1.02 0.34 0 0 Z " fill="#393734" transform="translate(104,352)"/>
<path d="M0 0 C2.66735273 2.48952921 4.55746343 4.63408134 6 8 C4.125 7.6875 4.125 7.6875 2 7 C0 4 0 4 0 0 Z " fill="#565149" transform="translate(272,51)"/>
<path d="M0 0 C1.98 0.66 3.96 1.32 6 2 C6 3.32 6 4.64 6 6 C3.5625 5.25 3.5625 5.25 1 4 C0.1875 1.875 0.1875 1.875 0 0 Z " fill="#283432" transform="translate(42,305)"/>
<path d="M0 0 C1.32 0 2.64 0 4 0 C3.67 1.32 3.34 2.64 3 4 C1.68 4.33 0.36 4.66 -1 5 C-1 2 -1 2 0 0 Z " fill="#202D2D" transform="translate(439,304)"/>
<path d="M0 0 C1 2 1 2 0.3125 4.5625 C-1 7 -1 7 -3.125 7.8125 C-3.74375 7.874375 -4.3625 7.93625 -5 8 C-3.62845496 5.04590299 -2.01136276 2.55991624 0 0 Z " fill="#68684C" transform="translate(118,170)"/>
<path d="M0 0 C0.66 0.33 1.32 0.66 2 1 C0.75453595 4.73639216 -0.63404953 5.18756513 -4 7 C-3.39816251 4.97954558 -2.72693904 2.97888961 -2 1 C-1.34 0.67 -0.68 0.34 0 0 Z " fill="#3E3D32" transform="translate(150,131)"/>
<path d="M0 0 C-1 2 -1 2 -2.84765625 2.6328125 C-3.57855469 2.79523438 -4.30945313 2.95765625 -5.0625 3.125 C-6.16271484 3.37636719 -6.16271484 3.37636719 -7.28515625 3.6328125 C-7.85105469 3.75398437 -8.41695313 3.87515625 -9 4 C-9.33 3.01 -9.66 2.02 -10 1 C-6.52674819 -0.1577506 -3.63932552 -0.06866652 0 0 Z " fill="#3C353C" transform="translate(297,132)"/>
<path d="M0 0 C4.875 4.75 4.875 4.75 6 7 C4.35 7 2.7 7 1 7 C0.67 4.69 0.34 2.38 0 0 Z " fill="#5D574C" transform="translate(266,44)"/>
<path d="M0 0 C0.66 0.33 1.32 0.66 2 1 C2 1.99 2 2.98 2 4 C0.02 4.99 0.02 4.99 -2 6 C-1.125 1.125 -1.125 1.125 0 0 Z " fill="#52514E" transform="translate(258,446)"/>
<path d="M0 0 C3.465 1.98 3.465 1.98 7 4 C6.67 4.99 6.34 5.98 6 7 C5.67 6.34 5.34 5.68 5 5 C4.34 4.690625 3.68 4.38125 3 4.0625 C1 3 1 3 0 0 Z " fill="#3E3F34" transform="translate(144,385)"/>
<path d="M0 0 C1.98 0.99 1.98 0.99 4 2 C4 2.99 4 3.98 4 5 C2.02 5.99 2.02 5.99 0 7 C0 4.69 0 2.38 0 0 Z " fill="#4B4D55" transform="translate(248,265)"/>
<path d="M0 0 C0.33 1.32 0.66 2.64 1 4 C-0.65 5.32 -2.3 6.64 -4 8 C-4 4.09161134 -2.49432124 2.88405893 0 0 Z " fill="#464B3F" transform="translate(154,124)"/>
<path d="M0 0 C4.875 4.625 4.875 4.625 6 8 C4.68 7.67 3.36 7.34 2 7 C1.34 4.69 0.68 2.38 0 0 Z " fill="#605C4B" transform="translate(299,86)"/>
<path d="M0 0 C0 3.15084005 -0.45473667 4.33871316 -2 7 C-2.66 7.66 -3.32 8.32 -4 9 C-4 4.31908701 -3.00354129 3.37898396 0 0 Z " fill="#59564B" transform="translate(212,50)"/>
<path d="M0 0 C-1 2 -1 2 -3.375 3.125 C-6 4 -6 4 -9 4 C-8.67 3.01 -8.34 2.02 -8 1 C-5.29120665 -0.35439668 -2.99066732 -0.06501451 0 0 Z " fill="#2C2F31" transform="translate(417,266)"/>
<path d="M0 0 C1.32 1.32 2.64 2.64 4 4 C3.01 4.495 3.01 4.495 2 5 C1.67 5.66 1.34 6.32 1 7 C0.34 6.67 -0.32 6.34 -1 6 C-0.67 4.02 -0.34 2.04 0 0 Z " fill="#5B554C" transform="translate(380,190)"/>
<path d="M0 0 C1.125 3.75 1.125 3.75 0 6 C-1.64363134 6.72159424 -3.31050386 7.39351421 -5 8 C-3.62845496 5.04590299 -2.01136276 2.55991624 0 0 Z " fill="#5E6353" transform="translate(107,184)"/>
<path d="M0 0 C0.66 0.33 1.32 0.66 2 1 C2 1.99 2 2.98 2 4 C-0.31 4 -2.62 4 -5 4 C-5 3.34 -5 2.68 -5 2 C-3.35 2 -1.7 2 0 2 C0 1.34 0 0.68 0 0 Z " fill="#383538" transform="translate(254,29)"/>
</svg>
