<?xml version="1.0" encoding="UTF-8"?>
<svg version="1.1" xmlns="http://www.w3.org/2000/svg" width="225" height="225">
<path d="M0 0 C74.25 0 148.5 0 225 0 C225 74.25 225 148.5 225 225 C150.75 225 76.5 225 0 225 C0 150.75 0 76.5 0 0 Z " fill="#F7F9F7" transform="translate(0,0)"/>
<path d="M0 0 C74.25 0 148.5 0 225 0 C225 74.25 225 148.5 225 225 C150.75 225 76.5 225 0 225 C0 150.75 0 76.5 0 0 Z M51 42 C50.25492188 42.59039062 49.50984375 43.18078125 48.7421875 43.7890625 C32.72443822 56.90464118 22.00991896 78.77104953 19 99 C17.86793117 115.77611369 17.9762955 133.06311769 25.703125 148.375 C27 151 27 151 26.4375 153.1875 C24.83082847 155.21330323 23.14590744 156.56939504 21 158 C21.495 160.475 21.495 160.475 22 163 C22.7734375 162.95617187 23.546875 162.91234375 24.34375 162.8671875 C32.72156915 162.88792468 32.72156915 162.88792468 36.19140625 165.90625 C37.4872484 167.61600416 38.74421308 169.35566103 39.96875 171.1171875 C48.99835431 183.93227977 62.332418 192.94247469 76.625 198.9375 C77.26840332 199.20788086 77.91180664 199.47826172 78.57470703 199.75683594 C89.41622159 204.00936141 100.21627097 205.53788287 111.8125 205.4375 C113.03646484 205.43065186 114.26042969 205.42380371 115.52148438 205.41674805 C129.47039516 205.17003639 141.37429103 202.03071574 154 196 C154.92296875 195.55914062 155.8459375 195.11828125 156.796875 194.6640625 C177.84182627 183.90379081 194.18197486 164.3644301 201.66845703 142.00341797 C208.11993066 121.00420333 207.91922119 99.66596431 200.12109375 79.1640625 C198.06644039 73.36521505 197.86226186 70.50833505 199.9375 64.625 C201.51184821 59.81479423 202.67105989 56.03294916 202 51 C200.24219353 48.81579153 200.24219353 48.81579153 198.07983398 48.82397461 C196.92463257 48.86276733 196.92463257 48.86276733 195.74609375 48.90234375 C181.68829788 49.04092297 181.68829788 49.04092297 177.16796875 46.25390625 C175.78382624 44.72685036 174.45078037 43.1521789 173.16796875 41.5390625 C160.73371123 26.97641856 136.94884793 20.30351161 118.6640625 18.80908203 C93.51913458 17.49854405 69.90511144 25.44985054 51 42 Z " fill="#000000" transform="translate(0,0)"/>
<path d="M0 0 C1.74506836 0.00966797 1.74506836 0.00966797 3.52539062 0.01953125 C4.74033203 0.03628906 5.95527344 0.05304687 7.20703125 0.0703125 C8.43357422 0.07933594 9.66011719 0.08835938 10.92382812 0.09765625 C13.9559242 0.12125233 16.98763063 0.15417409 20.01953125 0.1953125 C21.03336026 4.50657735 20.78624963 6.73322776 19.14453125 10.8828125 C18.77585938 11.83542969 18.4071875 12.78804687 18.02734375 13.76953125 C17.40581653 15.26553281 16.74400578 16.74636343 16.01953125 18.1953125 C16.67953125 18.5253125 17.33953125 18.8553125 18.01953125 19.1953125 C18.14328125 19.9790625 18.26703125 20.7628125 18.39453125 21.5703125 C18.95307543 24.80986874 19.77703729 27.33921185 20.95703125 30.3828125 C29.10033578 52.56221284 25.7214229 77.0632788 16.01953125 98.1953125 C11.61913255 106.94187134 5.80428682 114.19930996 -0.98046875 121.1953125 C-1.51929688 121.80761719 -2.058125 122.41992188 -2.61328125 123.05078125 C-15.47042068 137.16779112 -37.39090088 146.37375819 -56.20385742 147.30541992 C-84.13460087 147.98497913 -106.07017309 141.18369064 -127.1328125 122.26171875 C-132.15312216 117.47267096 -136.42834172 112.16732607 -139.98046875 106.1953125 C-139.98046875 105.5353125 -139.98046875 104.8753125 -139.98046875 104.1953125 C-145.42546875 105.1853125 -145.42546875 105.1853125 -150.98046875 106.1953125 C-147.84128152 102.81819177 -144.35483504 100.24817381 -140.54296875 97.6953125 C-124.31055822 86.74917605 -117.52965339 70.36465984 -108.98046875 53.1953125 C-107.26364055 56.6289689 -109.03981748 60.35313382 -109.91796875 63.9453125 C-112.32085613 72.71683497 -112.32085613 72.71683497 -111.10546875 81.5078125 C-110.07607886 83.354232 -110.07607886 83.354232 -107.98046875 84.1953125 C-105.04741124 84.39980854 -102.16631814 84.51921386 -99.23046875 84.5703125 C-98.43125 84.60769531 -97.63203125 84.64507812 -96.80859375 84.68359375 C-92.46998891 84.74781652 -89.8064078 84.50592832 -86.40234375 81.671875 C-85.603125 80.85460937 -84.80390625 80.03734375 -83.98046875 79.1953125 C-82.99046875 80.154375 -82.99046875 80.154375 -81.98046875 81.1328125 C-78.26128909 83.68974852 -75.35698718 84.0277582 -70.98046875 84.1953125 C-69.86027344 84.25847656 -68.74007812 84.32164062 -67.5859375 84.38671875 C-49.11200517 84.97651474 -34.60114405 77.21434524 -20.44140625 66.015625 C-17.98046875 64.1953125 -17.98046875 64.1953125 -14.98046875 63.1953125 C-14.98046875 62.5353125 -14.98046875 61.8753125 -14.98046875 61.1953125 C-25.15839464 61.00000049 -34.94589911 60.99436484 -45 62.7578125 C-48.03698782 63.20360888 -50.91562701 63.26861215 -53.98046875 63.1953125 C-48.48772735 47.37952949 -27.13847296 39.60726515 -13.31298828 32.59399414 C-9.13900662 30.45350216 -5.61881644 28.19079424 -1.98046875 25.1953125 C-1.32046875 25.1953125 -0.66046875 25.1953125 0.01953125 25.1953125 C-0.31046875 24.2053125 -0.64046875 23.2153125 -0.98046875 22.1953125 C-3.53966057 20.91571659 -5.43530903 21.02714714 -8.29296875 21.0078125 C-9.71029297 20.98654297 -9.71029297 20.98654297 -11.15625 20.96484375 C-14.12453757 21.20706915 -16.2891404 21.95504643 -18.98046875 23.1953125 C-10.6340071 -0.10374641 -10.6340071 -0.10374641 0 0 Z " fill="#F2F5F2" transform="translate(176.98046875,53.8046875)"/>
<path d="M0 0 C-0.1015625 1.859375 -0.1015625 1.859375 -1 4 C-3.8359375 5.265625 -3.8359375 5.265625 -7.375 6.25 C-8.53773437 6.58515625 -9.70046875 6.9203125 -10.8984375 7.265625 C-14 8 -14 8 -17 8 C-17 8.66 -17 9.32 -17 10 C-16.24074219 9.98839844 -15.48148438 9.97679687 -14.69921875 9.96484375 C-13.70535156 9.95582031 -12.71148437 9.94679688 -11.6875 9.9375 C-10.70136719 9.92589844 -9.71523437 9.91429687 -8.69921875 9.90234375 C-6 10 -6 10 -3 11 C-2.67 9.68 -2.34 8.36 -2 7 C-1.34 7 -0.68 7 0 7 C0 8.32 0 9.64 0 11 C0.969375 10.566875 1.93875 10.13375 2.9375 9.6875 C13.875 5 13.875 5 18 5 C18.33 4.34 18.66 3.68 19 3 C25.98492631 0.98739411 30.36225086 2.47404698 36.74121094 5.8215332 C42.37068316 8.98715159 48.1845109 12.7198855 52 18 C51.75390625 20.7734375 51.75390625 20.7734375 51 23 C49.85373678 22.02133662 48.70800212 21.04205413 47.5625 20.0625 C46.92441406 19.51722656 46.28632813 18.97195312 45.62890625 18.41015625 C44.73008851 17.63204305 43.84063472 16.84063472 43 16 C42.505 18.475 42.505 18.475 42 21 C42.763125 21.12375 43.52625 21.2475 44.3125 21.375 C47 22 47 22 50 24 C50 25.32 50 26.64 50 28 C50.66 28 51.32 28 52 28 C52.495 31.465 52.495 31.465 53 35 C52.36908447 35.32798584 51.73816895 35.65597168 51.08813477 35.99389648 C48.24524542 37.47316397 45.40385739 38.95529223 42.5625 40.4375 C41.56927734 40.95376953 40.57605469 41.47003906 39.55273438 42.00195312 C38.60849609 42.49501953 37.66425781 42.98808594 36.69140625 43.49609375 C35.81685791 43.95169678 34.94230957 44.4072998 34.04125977 44.87670898 C32.06808311 45.83905217 32.06808311 45.83905217 31 47 C29.33382885 47.04063832 27.66611905 47.042721 26 47 C26 48.32 26 49.64 26 51 C25.34 51 24.68 51 24 51 C24 50.01 24 49.02 24 48 C20.7087885 48.74560182 20.7087885 48.74560182 19.0625 52.0625 C18.381875 53.031875 17.70125 54.00125 17 55 C15.68 55 14.36 55 13 55 C13 52.69 13 50.38 13 48 C10.05943386 48.03297271 7.12652037 48.10006919 4.1875 48.1875 C2.93743164 48.19620117 2.93743164 48.19620117 1.66210938 48.20507812 C-0.66469826 48.28917961 -2.74627938 48.41026791 -5 49 C-7.15580017 51.3768061 -7.15580017 51.3768061 -8 54 C-7.34 54 -6.68 54 -6 54 C-5.505 55.98 -5.505 55.98 -5 58 C-3.02 57.505 -3.02 57.505 -1 57 C-0.67 55.35 -0.34 53.7 0 52 C0.66 52 1.32 52 2 52 C2.33292585 56.24480464 2.43885872 58.35542625 0 61.9375 C-0.66 62.618125 -1.32 63.29875 -2 64 C-4.16874252 63.49396008 -5.99967627 63.00016187 -8 62 C-8.66 63.65 -9.32 65.3 -10 67 C-9.34 67 -8.68 67 -8 67 C-8 67.66 -8 68.32 -8 69 C2.56 69 13.12 69 24 69 C24 68.01 24 67.02 24 66 C24.66 66 25.32 66 26 66 C26 67.32 26 68.64 26 70 C26.65226562 69.98839844 27.30453125 69.97679688 27.9765625 69.96484375 C32.7761914 69.91529006 37.27784685 70.00586249 42 71 C41.67 71.66 41.34 72.32 41 73 C36.05 72.67 31.1 72.34 26 72 C26 74.64 26 77.28 26 80 C25.01 80.495 25.01 80.495 24 81 C24 78.03 24 75.06 24 72 C13.77 72 3.54 72 -7 72 C-7 75.3 -7 78.6 -7 82 C-7.99 81.505 -7.99 81.505 -9 81 C-9.59772099 78.0170339 -9.74337815 75.03669195 -10 72 C-13.63 72 -17.26 72 -21 72 C-20.34 72.99 -19.68 73.98 -19 75 C-19.1875 76.875 -19.1875 76.875 -20 79 C-20.433125 80.36125 -20.433125 80.36125 -20.875 81.75 C-23 84 -23 84 -25.50390625 84.421875 C-32.85697428 84.61769572 -32.85697428 84.61769572 -36.3203125 82.74609375 C-38 81 -38 81 -38.49609375 78.94140625 C-38.34828765 72.94047849 -37.25902135 67.63313393 -35.66796875 61.8515625 C-34.78966019 58.10205812 -34.77900054 54.83065736 -35 51 C-38.10256238 51.67775948 -38.10256238 51.67775948 -39.25854492 54.04125977 C-39.86339722 55.35308228 -39.86339722 55.35308228 -40.48046875 56.69140625 C-40.92197266 57.63564453 -41.36347656 58.57988281 -41.81835938 59.55273438 C-42.27017578 60.54595703 -42.72199219 61.53917969 -43.1875 62.5625 C-43.65091797 63.55958984 -44.11433594 64.55667969 -44.59179688 65.58398438 C-45.73717732 68.05186594 -46.87273227 70.52380545 -48 73 C-48.99 73 -49.98 73 -51 73 C-55.09403846 58.50912305 -51.87286157 42.51840181 -45.375 29.375 C-37.28845275 15.53533704 -24.64203982 5.55004186 -9.421875 0.57421875 C-6.13733453 -0.2045352 -3.35528961 -0.29824797 0 0 Z " fill="#06B508" transform="translate(105,53)"/>
<path d="M0 0 C1.74506836 0.00966797 1.74506836 0.00966797 3.52539062 0.01953125 C4.74033203 0.03628906 5.95527344 0.05304687 7.20703125 0.0703125 C8.43357422 0.07933594 9.66011719 0.08835938 10.92382812 0.09765625 C13.9559242 0.12125233 16.98763063 0.15417409 20.01953125 0.1953125 C21.43504249 6.40437737 19.7349909 10.52319191 17.01953125 16.1953125 C9.62611849 27.89698553 -0.85033459 33.52190619 -12.79296875 39.6328125 C-26.45588983 46.48999784 -26.45588983 46.48999784 -38.98046875 55.1953125 C-38.98046875 55.5253125 -38.98046875 55.8553125 -38.98046875 56.1953125 C-38.13029175 55.95409668 -38.13029175 55.95409668 -37.26293945 55.70800781 C-33.27194454 54.81153874 -29.2430385 54.96895322 -25.16796875 54.9453125 C-24.29076172 54.9246875 -23.41355469 54.9040625 -22.50976562 54.8828125 C-16.87315768 54.8490856 -12.99516645 55.59560564 -7.98046875 58.1953125 C-8.09408987 64.764679 -11.95189382 68.02521914 -16.29296875 72.4453125 C-17.01919434 73.19603027 -17.74541992 73.94674805 -18.49365234 74.72021484 C-29.83877989 86.30518653 -43.88866017 99.57528786 -61.14355469 100.28417969 C-64.09301612 100.23827878 -67.03173608 100.11041368 -69.9765625 99.94140625 C-73.69153538 99.82802288 -75.53578782 99.84039635 -78.49609375 102.203125 C-78.9859375 102.86054688 -79.47578125 103.51796875 -79.98046875 104.1953125 C-80.57859375 103.7209375 -81.17671875 103.2465625 -81.79296875 102.7578125 C-85.07153909 100.41597654 -87.73805432 100.0677002 -91.65625 99.984375 C-92.56697266 99.95601563 -93.47769531 99.92765625 -94.41601562 99.8984375 C-96.32207698 99.84667752 -98.22835459 99.80231195 -100.13476562 99.765625 C-106.7374587 99.54227809 -111.38296747 98.72261105 -116.29296875 93.9453125 C-118.30592356 90.66494169 -118.6819454 88.00148515 -118.98046875 84.1953125 C-119.64046875 84.1953125 -120.30046875 84.1953125 -120.98046875 84.1953125 C-121.12742187 84.76378906 -121.274375 85.33226562 -121.42578125 85.91796875 C-121.65007812 86.69011719 -121.874375 87.46226562 -122.10546875 88.2578125 C-122.41871094 89.38896484 -122.41871094 89.38896484 -122.73828125 90.54296875 C-125.3951717 96.21601471 -128.69144736 100.03739431 -134.65234375 102.2265625 C-136.33786472 102.74034494 -138.03100859 103.22970698 -139.73046875 103.6953125 C-141.02404297 104.08976562 -141.02404297 104.08976562 -142.34375 104.4921875 C-148.66636776 106.35236299 -148.66636776 106.35236299 -150.98046875 105.1953125 C-150.49167236 104.85274414 -150.00287598 104.51017578 -149.49926758 104.15722656 C-147.26264333 102.58827902 -145.02779617 101.01681829 -142.79296875 99.4453125 C-142.02404297 98.90648437 -141.25511719 98.36765625 -140.46289062 97.8125 C-124.43644643 86.53208434 -117.56928173 70.44424552 -108.98046875 53.1953125 C-107.26364055 56.6289689 -109.03981748 60.35313382 -109.91796875 63.9453125 C-112.32085613 72.71683497 -112.32085613 72.71683497 -111.10546875 81.5078125 C-110.07607886 83.354232 -110.07607886 83.354232 -107.98046875 84.1953125 C-105.04741124 84.39980854 -102.16631814 84.51921386 -99.23046875 84.5703125 C-98.43125 84.60769531 -97.63203125 84.64507812 -96.80859375 84.68359375 C-92.46998891 84.74781652 -89.8064078 84.50592832 -86.40234375 81.671875 C-85.603125 80.85460937 -84.80390625 80.03734375 -83.98046875 79.1953125 C-82.99046875 80.154375 -82.99046875 80.154375 -81.98046875 81.1328125 C-78.26128909 83.68974852 -75.35698718 84.0277582 -70.98046875 84.1953125 C-69.86027344 84.25847656 -68.74007812 84.32164062 -67.5859375 84.38671875 C-49.11200517 84.97651474 -34.60114405 77.21434524 -20.44140625 66.015625 C-17.98046875 64.1953125 -17.98046875 64.1953125 -14.98046875 63.1953125 C-14.98046875 62.5353125 -14.98046875 61.8753125 -14.98046875 61.1953125 C-25.15839464 61.00000049 -34.94589911 60.99436484 -45 62.7578125 C-48.03698782 63.20360888 -50.91562701 63.26861215 -53.98046875 63.1953125 C-48.48772735 47.37952949 -27.13847296 39.60726515 -13.31298828 32.59399414 C-9.13900662 30.45350216 -5.61881644 28.19079424 -1.98046875 25.1953125 C-1.32046875 25.1953125 -0.66046875 25.1953125 0.01953125 25.1953125 C-0.31046875 24.2053125 -0.64046875 23.2153125 -0.98046875 22.1953125 C-3.53966057 20.91571659 -5.43530903 21.02714714 -8.29296875 21.0078125 C-9.71029297 20.98654297 -9.71029297 20.98654297 -11.15625 20.96484375 C-14.12453757 21.20706915 -16.2891404 21.95504643 -18.98046875 23.1953125 C-10.6340071 -0.10374641 -10.6340071 -0.10374641 0 0 Z " fill="#040404" transform="translate(176.98046875,53.8046875)"/>
<path d="M0 0 C1.20339139 1.48728122 2.39224562 2.98650704 3.5625 4.5 C7.11100636 8.41186104 10.5716058 8.51873938 15.58959961 8.80273438 C19.08298372 8.89336823 22.57049435 8.89582282 26.06396484 8.80810547 C28 9 28 9 30 11 C30.81534074 17.11505555 28.80180557 22.17467915 26.77734375 27.9140625 C25.48867125 33.02989806 27.08737471 36.23415498 29.171875 40.9140625 C37.59136498 62.12164575 35.70608481 88.19033386 27 109 C22.57871005 118.70991429 17.22396734 127.09218033 10 135 C9.30261719 135.77859375 8.60523438 136.5571875 7.88671875 137.359375 C-6.32736465 152.4309808 -28.10104796 163.82974658 -48.94995117 165.19287109 C-78.31285374 165.95771108 -102.29434459 160.61427611 -124.23046875 140.0078125 C-132.72794799 131.79401044 -132.72794799 131.79401044 -135.5 126.8125 C-138.56794667 123.36106 -139.82711971 123.45934389 -144.3125 123.0625 C-146.20771852 123.00991855 -148.10417035 122.97883444 -150 123 C-150.33 121.35 -150.66 119.7 -151 118 C-149.02 116.35 -147.04 114.7 -145 113 C-145.27714844 112.17628906 -145.55429688 111.35257813 -145.83984375 110.50390625 C-147.11318927 106.65814554 -148.34658767 102.80171989 -149.5625 98.9375 C-149.78357422 98.24333984 -150.00464844 97.54917969 -150.23242188 96.83398438 C-157.32903717 74.25774296 -153.43977608 49.71905436 -143.00927734 28.88427734 C-130.56751854 5.65604938 -109.51899706 -10.36071875 -84.609375 -18.03515625 C-55.34595753 -25.85773646 -23.42212209 -19.41171557 0 0 Z M-126.39453125 11.9765625 C-135.59408983 22.65191234 -142.47919377 35.36450765 -146 49 C-146.34933594 50.13050781 -146.69867188 51.26101562 -147.05859375 52.42578125 C-148.56917799 58.54246785 -148.38303264 64.79824621 -148.375 71.0625 C-148.37338867 72.35712158 -148.37177734 73.65174316 -148.37011719 74.9855957 C-148.25073482 84.28981274 -147.3836771 92.26645506 -144 101 C-143.42765625 102.53914063 -143.42765625 102.53914063 -142.84375 104.109375 C-141.94520249 106.43276214 -141.00754106 108.72231409 -140 111 C-139.34 111 -138.68 111 -138 111 C-139.50223584 115.20626034 -142.28550034 116.73900021 -146 119 C-143.36749612 120.31625194 -142.19820944 119.74813658 -139.375 119.0625 C-138.55773437 118.86785156 -137.74046875 118.67320312 -136.8984375 118.47265625 C-136.27195312 118.31667969 -135.64546875 118.16070312 -135 118 C-134.61714844 119.08861328 -134.61714844 119.08861328 -134.2265625 120.19921875 C-132.06984741 125.12394715 -128.47926587 128.94811793 -125 133 C-124.41347656 133.68449219 -123.82695313 134.36898437 -123.22265625 135.07421875 C-109.0609244 150.3515356 -87.46684986 159.93527809 -66.81079102 161.1262207 C-42.58121856 161.92183368 -19.16828871 156.46129424 -0.8125 139.6875 C1.15633952 137.82001644 3.07788266 135.91677813 5 134 C5.804375 133.21882812 6.60875 132.43765625 7.4375 131.6328125 C17.88928659 120.85440758 24.10708117 107.3449152 28 93 C28.24492187 92.12730469 28.48984375 91.25460938 28.7421875 90.35546875 C32.76809381 72.84553377 29.77760361 55.14267364 23.76953125 38.55859375 C23 36 23 36 23 32 C22.34 31.67 21.68 31.34 21 31 C21.27714844 30.5153125 21.55429688 30.030625 21.83984375 29.53125 C24.50687602 24.59581662 25.70451252 20.6142621 26 15 C24.45049732 13.45049732 22.90009406 13.78344807 20.74609375 13.68359375 C19.46508789 13.62075195 19.46508789 13.62075195 18.15820312 13.55664062 C17.26037109 13.51732422 16.36253906 13.47800781 15.4375 13.4375 C14.08495117 13.37272461 14.08495117 13.37272461 12.70507812 13.30664062 C10.47021515 13.20021858 8.23523692 13.09820012 6 13 C6 12.01 6 11.02 6 10 C-6.55598114 -4.21092422 -24.2051322 -11.26852562 -42 -16 C-42.6177832 -16.18030762 -43.23556641 -16.36061523 -43.87207031 -16.54638672 C-74.68304504 -23.11439854 -105.23582578 -9.82331587 -126.39453125 11.9765625 Z " fill="#EDF2EE" transform="translate(172,40)"/>
<path d="M0 0 C8.58410274 8.58410274 9.19284568 25.91014755 9.3125 37.3125 C9.20706372 61.85118107 0.03447782 83.43514467 -17 101 C-17.53882813 101.61230469 -18.07765625 102.22460938 -18.6328125 102.85546875 C-31.48995193 116.97247862 -53.41043213 126.17844569 -72.22338867 127.11010742 C-100.15413212 127.78966663 -122.08970434 120.98837814 -143.15234375 102.06640625 C-148.22244172 97.22986365 -152.16502425 91.84833801 -156 86 C-155.01 85.01 -155.01 85.01 -154 84 C-153.01 84 -152.02 84 -151 84 C-149.23828125 86.125 -149.23828125 86.125 -147.3125 89 C-135.12702757 106.23153606 -116.15358067 117.17324896 -95.52734375 121.30859375 C-72.86053256 125.17950175 -50.47770245 119.60046246 -31.5234375 106.87890625 C-27.05340471 103.5506001 -22.97237103 99.90411723 -19 96 C-18.37351563 95.38640625 -17.74703125 94.7728125 -17.1015625 94.140625 C-3.03104187 79.24242668 3.56411016 58.71270183 3.375 38.625 C3.39240234 36.78808594 3.39240234 36.78808594 3.41015625 34.9140625 C3.38102815 25.74842164 2.42378061 16.83800276 -1.11962891 8.30322266 C-2.2068333 5.4588837 -1.87853352 3.87520061 -1 1 C-0.67 0.67 -0.34 0.34 0 0 Z " fill="#0BB60C" transform="translate(193,74)"/>
<path d="M0 0 C0.74886475 0.00523682 1.49772949 0.01047363 2.26928711 0.01586914 C3.07817383 0.0190918 3.88706055 0.02231445 4.72045898 0.02563477 C5.5705957 0.03401367 6.42073242 0.04239258 7.29663086 0.05102539 C8.15063477 0.05553711 9.00463867 0.06004883 9.88452148 0.06469727 C12.00108749 0.07652166 14.11761771 0.0944577 16.23413086 0.11352539 C16.56413086 3.08352539 16.89413086 6.05352539 17.23413086 9.11352539 C13.93413086 9.11352539 10.63413086 9.11352539 7.23413086 9.11352539 C7.23413086 10.10352539 7.23413086 11.09352539 7.23413086 12.11352539 C12.18413086 11.78352539 17.13413086 11.45352539 22.23413086 11.11352539 C21.90413086 12.76352539 21.57413086 14.41352539 21.23413086 16.11352539 C22.50385742 15.89696289 23.77358398 15.68040039 25.08178711 15.45727539 C50.77467212 11.23859185 50.77467212 11.23859185 60.23413086 14.11352539 C60.23413086 14.77352539 60.23413086 15.43352539 60.23413086 16.11352539 C57.74645045 18.41655146 54.92116959 20.32309744 52.17163086 22.30102539 C51.36048828 22.88456787 50.5493457 23.46811035 49.71362305 24.06933594 C31.10820046 37.13639172 31.10820046 37.13639172 21.23413086 36.11352539 C20.30407227 35.61550415 20.30407227 35.61550415 19.35522461 35.10742188 C16.87492318 33.94520881 15.19580432 33.88324753 12.46850586 33.91821289 C11.57905273 33.9246582 10.68959961 33.93110352 9.77319336 33.93774414 C8.85280273 33.95450195 7.93241211 33.97125977 6.98413086 33.98852539 C5.5803418 34.00206055 5.5803418 34.00206055 4.14819336 34.01586914 C1.84324429 34.03938903 -0.46118074 34.07225687 -2.76586914 34.11352539 C-3.76586914 32.11352539 -3.76586914 32.11352539 -3.76586914 24.11352539 C6.46413086 24.11352539 16.69413086 24.11352539 27.23413086 24.11352539 C27.72913086 28.07352539 27.72913086 28.07352539 28.23413086 32.11352539 C28.56413086 29.47352539 28.89413086 26.83352539 29.23413086 24.11352539 C34.18413086 24.11352539 39.13413086 24.11352539 44.23413086 24.11352539 C36.80913086 23.12352539 36.80913086 23.12352539 29.23413086 22.11352539 C29.23413086 20.79352539 29.23413086 19.47352539 29.23413086 18.11352539 C28.57413086 18.11352539 27.91413086 18.11352539 27.23413086 18.11352539 C27.23413086 19.10352539 27.23413086 20.09352539 27.23413086 21.11352539 C16.67413086 21.11352539 6.11413086 21.11352539 -4.76586914 21.11352539 C-4.76586914 20.45352539 -4.76586914 19.79352539 -4.76586914 19.11352539 C-5.42586914 19.11352539 -6.08586914 19.11352539 -6.76586914 19.11352539 C-6.10586914 17.46352539 -5.44586914 15.81352539 -4.76586914 14.11352539 C-1.79586914 14.60852539 -1.79586914 14.60852539 1.23413086 15.11352539 C4.38371917 11.69005984 4.79592195 8.67089802 5.23413086 4.11352539 C4.57413086 4.11352539 3.91413086 4.11352539 3.23413086 4.11352539 C3.29600586 5.28915039 3.29600586 5.28915039 3.35913086 6.48852539 C3.23413086 9.11352539 3.23413086 9.11352539 1.23413086 11.11352539 C-0.89086914 10.73852539 -0.89086914 10.73852539 -2.76586914 10.11352539 C-2.76586914 8.79352539 -2.76586914 7.47352539 -2.76586914 6.11352539 C-3.42586914 6.11352539 -4.08586914 6.11352539 -4.76586914 6.11352539 C-2.47572912 0.15916135 -2.47572912 0.15916135 0 0 Z " fill="#FDFEFD" transform="translate(101.765869140625,100.886474609375)"/>
<path d="M0 0 C0 0.66 0 1.32 0 2 C0.66 2 1.32 2 2 2 C2.495 6.455 2.495 6.455 3 11 C3.33 8.03 3.66 5.06 4 2 C4.66 2 5.32 2 6 2 C6.12117188 2.77085938 6.24234375 3.54171875 6.3671875 4.3359375 C6.53476563 5.33882813 6.70234375 6.34171875 6.875 7.375 C7.03742188 8.37273437 7.19984375 9.37046875 7.3671875 10.3984375 C7.7958802 13.1425115 7.7958802 13.1425115 10 15 C10.36352497 18.34442974 10.5176323 20.25731017 8.5625 23.0625 C8.046875 23.701875 7.53125 24.34125 7 25 C6.28566879 27.64934822 6.28566879 27.64934822 6 30 C5.41065674 30.09893555 4.82131348 30.19787109 4.21411133 30.29980469 C1.56827207 31.13653057 0.47839872 32.20274129 -1.42578125 34.203125 C-2.05806641 34.85410156 -2.69035156 35.50507813 -3.34179688 36.17578125 C-4.31729492 37.20251953 -4.31729492 37.20251953 -5.3125 38.25 C-9.94168009 43.09872748 -14.47463978 47.19729413 -20 51 C-20 51.33 -20 51.66 -20 52 C-18.35 52.33 -16.7 52.66 -15 53 C-15 55.64 -15 58.28 -15 61 C-15.763125 61.268125 -16.52625 61.53625 -17.3125 61.8125 C-19.96130471 62.76522986 -19.96130471 62.76522986 -21.27734375 64.41015625 C-29.03062868 71.56568225 -41.60022739 72.10502857 -51.546875 72.1328125 C-54 72 -54 72 -57 71 C-57.94921875 68.93359375 -57.94921875 68.93359375 -58.6875 66.4375 C-58.93886719 65.61121094 -59.19023438 64.78492188 -59.44921875 63.93359375 C-59.63097656 63.29550781 -59.81273438 62.65742188 -60 62 C-60 64.64 -60 67.28 -60 70 C-65.96564796 69.49228528 -70.63809899 67.61407872 -76 65 C-76 64.34 -76 63.68 -76 63 C-72.7 63 -69.4 63 -66 63 C-66 62.34 -66 61.68 -66 61 C-65.01 61 -64.02 61 -63 61 C-62.60554688 60.34 -62.21109375 59.68 -61.8046875 59 C-60 57 -60 57 -56.4453125 56.75 C-55.00455198 56.8210885 -53.56439326 56.90517644 -52.125 57 C-35.36301279 57.51343024 -22.36191078 50.41781488 -10.3125 39.1875 C-7.84243478 36.82327682 -5.41212384 34.42320451 -3 32 C-2.24517334 31.24904053 -2.24517334 31.24904053 -1.47509766 30.48291016 C4.76107388 24.28534017 4.76107388 24.28534017 7 16 C1.59098033 13.74920728 -3.24962209 13.73216384 -9 13.8125 C-9.8765625 13.81314453 -10.753125 13.81378906 -11.65625 13.81445312 C-16.21081371 13.8453199 -20.51982683 14.07891177 -25 15 C-21.71208507 10.14559156 -17.92148936 7.93122959 -12.875 5.25 C-11.78251953 4.65251953 -11.78251953 4.65251953 -10.66796875 4.04296875 C-3.25357521 0 -3.25357521 0 0 0 Z " fill="#EDF5EE" transform="translate(161,96)"/>
<path d="M0 0 C1.18174805 0.00757324 2.36349609 0.01514648 3.58105469 0.02294922 C12.55526203 0.19197127 20.17813776 1.26250846 28.625 4.4375 C29.87023437 4.86160156 31.11546875 5.28570313 32.3984375 5.72265625 C43.90827652 9.80937757 54.04969227 16.04121408 62.35546875 25.125 C63.61189418 26.56926762 63.61189418 26.56926762 65.625 27.4375 C65.625 28.0975 65.625 28.7575 65.625 29.4375 C62.08937671 29.76261479 60.25323825 29.90222419 57.34375 27.75 C56.6115625 26.986875 55.879375 26.22375 55.125 25.4375 C39.11903025 10.13058616 18.13076924 4.90601793 -3.47460938 5.01611328 C-11.99598465 5.21830179 -19.33858133 6.45759968 -27.375 9.4375 C-29.12103516 10.05625 -29.12103516 10.05625 -30.90234375 10.6875 C-52.8796612 19.23558369 -68.72172872 36.14195134 -78.18359375 57.46484375 C-82.41974771 68.0343951 -83.76667755 78.3458856 -83.75 89.6875 C-83.74911377 90.78070557 -83.74822754 91.87391113 -83.74731445 93.00024414 C-83.61979665 101.75107229 -82.26546391 109.14943144 -79.375 117.4375 C-78.78437075 119.41450166 -78.20019879 121.39345393 -77.625 123.375 C-77.21081107 124.72992657 -76.79524469 126.08443944 -76.375 127.4375 C-78.355 127.9325 -78.355 127.9325 -80.375 128.4375 C-81.34122597 125.96116615 -82.29801353 123.48180658 -83.25 121 C-83.51941406 120.31228516 -83.78882813 119.62457031 -84.06640625 118.91601562 C-90.95861496 100.84498059 -91.55743772 77.48748238 -84.375 59.4375 C-84.00117187 58.47714844 -83.62734375 57.51679687 -83.2421875 56.52734375 C-82.06532979 53.75666218 -80.76764746 51.10576571 -79.375 48.4375 C-78.88386719 47.47328125 -78.39273438 46.5090625 -77.88671875 45.515625 C-73.45011968 37.34127062 -67.89600476 30.96778073 -61.375 24.4375 C-60.64410156 23.695 -59.91320312 22.9525 -59.16015625 22.1875 C-43.43849477 7.19775944 -21.40914942 -0.19406855 0 0 Z " fill="#0CB60D" transform="translate(112.375,22.5625)"/>
<path d="M0 0 C4.47836749 12.78762765 3.91591946 29.56387417 -1.453125 41.9609375 C-2.21882813 43.46527344 -2.21882813 43.46527344 -3 45 C-3.53109375 46.06476563 -4.0621875 47.12953125 -4.609375 48.2265625 C-12.75449947 63.28383389 -25.46239864 72.05032654 -41.5546875 77.08984375 C-58.63907336 81.60306587 -74.18350545 78.57641436 -89.29150391 70.03271484 C-92.61440002 68.02416232 -95.29360484 65.77405504 -98 63 C-98 62.67 -98 62.34 -98 62 C-95.36 62 -92.72 62 -90 62 C-89.67 62.66 -89.34 63.32 -89 64 C-85.04 64 -81.08 64 -77 64 C-79 66 -79 66 -82.125 66.125 C-83.07375 66.08375 -84.0225 66.0425 -85 66 C-85 66.66 -85 67.32 -85 68 C-79.69905784 69.80304155 -74.39691512 71.50723624 -69 73 C-69.33 70.36 -69.66 67.72 -70 65 C-69.01 64.505 -69.01 64.505 -68 64 C-67.34 67.3 -66.68 70.6 -66 74 C-52.95315404 74.33405864 -41.81148459 72.9057423 -30 67 C-30.33 66.34 -30.66 65.68 -31 65 C-29.02 64.67 -27.04 64.34 -25 64 C-24.67 61.36 -24.34 58.72 -24 56 C-25.65 56 -27.3 56 -29 56 C-29 55.01 -29 54.02 -29 53 C-27.26953125 51.4140625 -27.26953125 51.4140625 -24.8125 49.625 C-17.93391057 44.35503335 -12.02809238 38.19816396 -6 32 C-4.515 32.495 -4.515 32.495 -3 33 C-3.061875 32.2575 -3.12375 31.515 -3.1875 30.75 C-3 28 -3 28 -1.5 26.0625 C0.53636345 23.26250025 0.36769775 21.38281933 0 18 C-0.99 17.01 -0.99 17.01 -2 16 C-2.4140625 13.3984375 -2.4140625 13.3984375 -2.625 10.375 C-2.73714844 8.87066406 -2.73714844 8.87066406 -2.8515625 7.3359375 C-2.90054688 6.56507812 -2.94953125 5.79421875 -3 5 C-3.66 5 -4.32 5 -5 5 C-5 8.3 -5 11.6 -5 15 C-5.99 14.505 -5.99 14.505 -7 14 C-7 11.03 -7 8.06 -7 5 C-7.99 4.505 -7.99 4.505 -9 4 C-2.25 0 -2.25 0 0 0 Z " fill="#0BB70C" transform="translate(170,93)"/>
<path d="M0 0 C1.1725131 0.95117134 2.33787015 1.91117009 3.5 2.875 C4.1496875 3.40867187 4.799375 3.94234375 5.46875 4.4921875 C6.22671875 5.23855469 6.22671875 5.23855469 7 6 C7 6.66 7 7.32 7 8 C8.6454378 9.68762851 10.31288577 11.3540349 12 13 C12.33 13.66 12.66 14.32 13 15 C13.99 15 14.98 15 16 15 C15.67 14.67 15.34 14.34 15 14 C14.73822859 10.5315288 14.63851257 7.85853265 16 4.625 C19.15887112 2.05841721 21.96481097 2.19215186 26 2 C26.66 2.33 27.32 2.66 28 3 C28.625 5.0625 28.625 5.0625 29 7 C30.32 6.67 31.64 6.34 33 6 C33.33 4.35 33.66 2.7 34 1 C34.66 1 35.32 1 36 1 C36.33292585 5.24480464 36.43885872 7.35542625 34 10.9375 C33.34 11.618125 32.68 12.29875 32 13 C29.83125748 12.49396008 28.00032373 12.00016187 26 11 C25.34 12.65 24.68 14.3 24 16 C24.66 16 25.32 16 26 16 C26 16.66 26 17.32 26 18 C36.56 18 47.12 18 58 18 C58 17.01 58 16.02 58 15 C58.66 15 59.32 15 60 15 C60 16.32 60 17.64 60 19 C60.65226562 18.98839844 61.30453125 18.97679688 61.9765625 18.96484375 C66.7761914 18.91529006 71.27784685 19.00586249 76 20 C75.67 20.66 75.34 21.32 75 22 C70.05 21.67 65.1 21.34 60 21 C60 23.64 60 26.28 60 29 C59.01 29.495 59.01 29.495 58 30 C58 27.03 58 24.06 58 21 C47.77 21 37.54 21 27 21 C27 24.3 27 27.6 27 31 C26.34 30.67 25.68 30.34 25 30 C24.40227901 27.0170339 24.25662185 24.03669195 24 21 C20.37 21 16.74 21 13 21 C13.66 21.99 14.32 22.98 15 24 C14.8125 25.875 14.8125 25.875 14 28 C13.71125 28.9075 13.4225 29.815 13.125 30.75 C11 33 11 33 8.49609375 33.421875 C1.14302572 33.61769572 1.14302572 33.61769572 -2.3203125 31.74609375 C-4 30 -4 30 -4.49609375 27.94140625 C-4.34783866 21.92224957 -3.26342511 16.58080789 -1.6640625 10.78125 C-0.85179392 7.37927805 -0.84561331 4.47370055 -1 1 C-0.67 0.67 -0.34 0.34 0 0 Z " fill="#09B60B" transform="translate(71,104)"/>
<path d="M0 0 C1.32 0.66 2.64 1.32 4 2 C4.33 1.34 4.66 0.68 5 0 C5.66 0.66 6.32 1.32 7 2 C5.6776206 4.00805761 4.34460752 6.00686795 3 8 C2.35224609 8.96873047 2.35224609 8.96873047 1.69140625 9.95703125 C0.51254215 11.67460476 -0.73948225 13.34142401 -2 15 C-2.66 15 -3.32 15 -4 15 C-3.83242187 15.56847656 -3.66484375 16.13695313 -3.4921875 16.72265625 C-2.04760779 22.19925908 -2.03455634 25.54043428 -4 31 C-4 31.99 -4 32.98 -4 34 C-4.66 34.99 -5.32 35.98 -6 37 C-6.37125 38.2375 -6.7425 39.475 -7.125 40.75 C-9.4024025 47.93991469 -13.35698981 54.43219778 -17 61 C-19 60 -19 60 -19.61010742 58.22045898 C-22.50969345 41.70716221 -19.47053608 24.86757069 -10 11 C-6.87725202 7.13810393 -3.47273183 3.548226 0 0 Z " fill="#08B709" transform="translate(73,66)"/>
<path d="M0 0 C0.33 0.66 0.66 1.32 1 2 C0.34 2 -0.32 2 -1 2 C-1.33 2.66 -1.66 3.32 -2 4 C-2.52464844 3.69707031 -3.04929687 3.39414062 -3.58984375 3.08203125 C-11.67306472 -1.2890949 -20.17826803 -3.61574812 -29 -6 C-29.6192334 -6.18103271 -30.2384668 -6.36206543 -30.87646484 -6.54858398 C-52.58921369 -11.16422811 -76.18870735 -5.39984901 -94.75146484 6.08349609 C-106.36579362 13.78592196 -115.03130236 23.28279142 -122.1875 35.09375 C-124 38 -124 38 -126 40 C-126 39.01 -126 38.02 -126 37 C-127.485 37.495 -127.485 37.495 -129 38 C-122.37941458 19.40886114 -103.95658773 5.26653925 -86.828125 -3.24609375 C-58.68072137 -16.52195037 -27.13857255 -14.69873449 0 0 Z " fill="#EBF1EB" transform="translate(159,31)"/>
<path d="M0 0 C0.74886475 0.00523682 1.49772949 0.01047363 2.26928711 0.01586914 C3.07817383 0.0190918 3.88706055 0.02231445 4.72045898 0.02563477 C5.5705957 0.03401367 6.42073242 0.04239258 7.29663086 0.05102539 C8.15063477 0.05553711 9.00463867 0.06004883 9.88452148 0.06469727 C12.00108749 0.07652166 14.11761771 0.0944577 16.23413086 0.11352539 C16.56413086 3.08352539 16.89413086 6.05352539 17.23413086 9.11352539 C13.93413086 9.11352539 10.63413086 9.11352539 7.23413086 9.11352539 C7.23413086 10.10352539 7.23413086 11.09352539 7.23413086 12.11352539 C12.18413086 11.78352539 17.13413086 11.45352539 22.23413086 11.11352539 C21.90413086 12.76352539 21.57413086 14.41352539 21.23413086 16.11352539 C24.20413086 16.11352539 27.17413086 16.11352539 30.23413086 16.11352539 C29.24413086 16.44352539 28.25413086 16.77352539 27.23413086 17.11352539 C27.23413086 18.43352539 27.23413086 19.75352539 27.23413086 21.11352539 C16.67413086 21.11352539 6.11413086 21.11352539 -4.76586914 21.11352539 C-4.76586914 20.45352539 -4.76586914 19.79352539 -4.76586914 19.11352539 C-5.42586914 19.11352539 -6.08586914 19.11352539 -6.76586914 19.11352539 C-6.10586914 17.46352539 -5.44586914 15.81352539 -4.76586914 14.11352539 C-1.79586914 14.60852539 -1.79586914 14.60852539 1.23413086 15.11352539 C4.38371917 11.69005984 4.79592195 8.67089802 5.23413086 4.11352539 C4.57413086 4.11352539 3.91413086 4.11352539 3.23413086 4.11352539 C3.29600586 5.28915039 3.29600586 5.28915039 3.35913086 6.48852539 C3.23413086 9.11352539 3.23413086 9.11352539 1.23413086 11.11352539 C-0.89086914 10.73852539 -0.89086914 10.73852539 -2.76586914 10.11352539 C-2.76586914 8.79352539 -2.76586914 7.47352539 -2.76586914 6.11352539 C-3.42586914 6.11352539 -4.08586914 6.11352539 -4.76586914 6.11352539 C-2.47572912 0.15916135 -2.47572912 0.15916135 0 0 Z " fill="#F9FBF9" transform="translate(101.765869140625,100.886474609375)"/>
<path d="M0 0 C3.63 0 7.26 0 11 0 C11.66 2.97 12.32 5.94 13 9 C15.41321672 9 17.82520818 8.98553996 20.23828125 8.96484375 C21.92968649 8.95554301 23.6210928 8.94643574 25.3125 8.9375 C26.57610352 8.92493164 26.57610352 8.92493164 27.86523438 8.91210938 C32.36468734 8.89451964 36.57078309 9.08236452 41 10 C41.495 11.485 41.495 11.485 42 13 C32.82841281 15.18371124 20.95947888 15.19128105 12 12 C9.73046875 10.42578125 9.73046875 10.42578125 8 9 C7.443125 9.825 6.88625 10.65 6.3125 11.5 C4.12368522 13.77201534 2.9853313 14.00150949 -0.2265625 14.33203125 C-3.49669399 14.31422008 -6.73718771 14.21497299 -10 14 C-10 13.67 -10 13.34 -10 13 C-7.36 12.67 -4.72 12.34 -2 12 C-1.87625 11.38125 -1.7525 10.7625 -1.625 10.125 C-1 8 -1 8 1 6 C0.67801034 2.90073181 0.67801034 2.90073181 0 0 Z " fill="#F5F9F6" transform="translate(84,125)"/>
<path d="M0 0 C9.24982677 9.24982677 9.30830638 27.86846052 9.3137207 40.06152344 C9.1900946 47.67033468 8.07301928 54.65805673 6 62 C5.67 60.68 5.34 59.36 5 58 C3.515 58.495 3.515 58.495 2 59 C2.16081055 58.14349854 2.32162109 57.28699707 2.48730469 56.40454102 C3.36084388 50.6038248 3.2263025 44.79374362 3.25 38.9375 C3.270625 37.69033203 3.29125 36.44316406 3.3125 35.15820312 C3.3511342 25.87150682 2.47491504 16.95587118 -1.12011719 8.30444336 C-2.20637886 5.45948667 -1.87862421 3.87549743 -1 1 C-0.67 0.67 -0.34 0.34 0 0 Z " fill="#19B41A" transform="translate(193,74)"/>
<path d="M0 0 C0.495 0.99 0.495 0.99 1 2 C0.34 2 -0.32 2 -1 2 C-1.33 2.66 -1.66 3.32 -2 4 C-2.52464844 3.69707031 -3.04929687 3.39414062 -3.58984375 3.08203125 C-11.67306472 -1.2890949 -20.17826803 -3.61574812 -29 -6 C-29.92014893 -6.27372437 -29.92014893 -6.27372437 -30.85888672 -6.55297852 C-35.86635752 -7.59843793 -41.15626668 -7.1848049 -46.25 -7.1875 C-47.45269531 -7.19974609 -48.65539062 -7.21199219 -49.89453125 -7.22460938 C-56.3332222 -7.23521095 -61.82774339 -6.79905636 -68 -5 C-69.32 -5 -70.64 -5 -72 -5 C-71.4375 -6.875 -71.4375 -6.875 -70 -9 C-47.70947269 -17.47040038 -20.17179556 -10.92540393 0 0 Z " fill="#DFE7DF" transform="translate(159,31)"/>
<path d="M0 0 C0 0.66 0 1.32 0 2 C-1.56054688 3.32861328 -1.56054688 3.32861328 -3.71875 4.8203125 C-4.48574219 5.35527344 -5.25273437 5.89023438 -6.04296875 6.44140625 C-6.85378906 6.99699219 -7.66460937 7.55257812 -8.5 8.125 C-9.31082031 8.68832031 -10.12164062 9.25164062 -10.95703125 9.83203125 C-12.96729017 11.22738744 -14.98167493 12.61634849 -17 14 C-17 11 -17 11 -16 10 C-23.425 9.01 -23.425 9.01 -31 8 C-31 6.68 -31 5.36 -31 4 C-31.66 3.67 -32.32 3.34 -33 3 C-33 2.34 -33 1.68 -33 1 C-9.70989861 -3.01924708 -9.70989861 -3.01924708 0 0 Z " fill="#E8EEE8" transform="translate(162,115)"/>
<path d="M0 0 C0.66 0 1.32 0 2 0 C2.33292585 4.24480464 2.43885872 6.35542625 0 9.9375 C-0.66 10.618125 -1.32 11.29875 -2 12 C-4.16874252 11.49396008 -5.99967627 11.00016187 -8 10 C-8.66 12.64 -9.32 15.28 -10 18 C-14.42386702 18.46635201 -18.59569771 18.7144994 -23 18 C-25.63203147 15.72168027 -26.92348944 13.2889709 -28 10 C-28 9.34 -28 8.68 -28 8 C-26.1875 8.1875 -26.1875 8.1875 -24 9 C-22.98812105 10.65948148 -21.9873454 12.32580562 -21 14 C-20.01 14 -19.02 14 -18 14 C-18.33 13.67 -18.66 13.34 -19 13 C-19.26177141 9.5315288 -19.36148743 6.85853265 -18 3.625 C-14.84112888 1.05841721 -12.03518903 1.19215186 -8 1 C-7.34 1.33 -6.68 1.66 -6 2 C-5.375 4.0625 -5.375 4.0625 -5 6 C-3.68 5.67 -2.36 5.34 -1 5 C-0.67 3.35 -0.34 1.7 0 0 Z " fill="#EEEFED" transform="translate(105,105)"/>
<path d="M0 0 C2.97941998 -0.05455703 5.95781531 -0.09393851 8.9375 -0.125 C10.18370117 -0.15013672 10.18370117 -0.15013672 11.45507812 -0.17578125 C17.27505267 -0.22107288 22.3596123 0.5543305 28 2 C25.66483066 4.46911393 24.35579041 5.36694796 21 6 C19.28819529 6.46661343 17.57993453 6.94637707 15.875 7.4375 C15.00617188 7.68371094 14.13734375 7.92992187 13.2421875 8.18359375 C10.83826048 8.88006938 10.83826048 8.88006938 9 11 C7.01178687 11.39764263 5.01055661 11.73775349 3 12 C3 10.68 3 9.36 3 8 C2.34 8 1.68 8 1 8 C0.67 9.32 0.34 10.64 0 12 C-6.93 11.505 -6.93 11.505 -14 11 C-14 10.34 -14 9.68 -14 9 C-12.27255984 8.34956281 -10.5429631 7.70485156 -8.8125 7.0625 C-7.36810547 6.52302734 -7.36810547 6.52302734 -5.89453125 5.97265625 C-3.2631722 5.08843438 -0.73105092 4.47431414 2 4 C2.33 3.01 2.66 2.02 3 1 C2.01 0.67 1.02 0.34 0 0 Z " fill="#09B60A" transform="translate(102,52)"/>
<path d="M0 0 C6.93 0 13.86 0 21 0 C20 8 20 8 19 10 C15.91493912 11.02835363 13.7305728 11.13368434 10.5 11.125 C9.06140625 11.12886719 9.06140625 11.12886719 7.59375 11.1328125 C5 11 5 11 2 10 C0.04750325 6.30053248 0 4.36467677 0 0 Z " fill="#F1F9F1" transform="translate(102,157)"/>
<path d="M0 0 C0 0.66 0 1.32 0 2 C5.94 2.33 11.88 2.66 18 3 C10.84047708 8.36964219 3.7935275 11.43985802 -5 13 C-6 11 -6 11 -4 3 C-10.93 3 -17.86 3 -25 3 C-25 2.67 -25 2.34 -25 2 C-23.75863281 1.93941406 -22.51726562 1.87882813 -21.23828125 1.81640625 C-19.59634423 1.73196377 -17.95441768 1.64731764 -16.3125 1.5625 C-15.08756836 1.50352539 -15.08756836 1.50352539 -13.83789062 1.44335938 C-9.21386278 1.19998949 -4.56628748 0 0 0 Z " fill="#2AB52E" transform="translate(127,154)"/>
<path d="M0 0 C9.33630858 0.15004782 17.15566633 8.56869665 23.53125 14.58203125 C25.67435291 16.64340431 25.67435291 16.64340431 28.625 18.5 C28.625 19.16 28.625 19.82 28.625 20.5 C25.08937671 20.82511479 23.25323825 20.96472419 20.34375 18.8125 C19.6115625 18.049375 18.879375 17.28625 18.125 16.5 C13.07222039 11.63179681 7.74504602 8.43548746 1.62890625 5.12890625 C-1.375 3.5 -1.375 3.5 -4.375 1.5 C-3.375 0.5 -3.375 0.5 0 0 Z " fill="#0FB610" transform="translate(149.375,31.5)"/>
<path d="M0 0 C0.57492188 0.23976562 1.14984375 0.47953125 1.7421875 0.7265625 C0.29268295 4.5175744 -1.40953816 8.1140263 -3.2578125 11.7265625 C-2.64292969 11.28183594 -2.02804688 10.83710938 -1.39453125 10.37890625 C-0.58628906 9.81300781 0.22195312 9.24710938 1.0546875 8.6640625 C1.85519531 8.09558594 2.65570313 7.52710938 3.48046875 6.94140625 C4.22683594 6.54050781 4.97320312 6.13960937 5.7421875 5.7265625 C6.7321875 6.0565625 7.7221875 6.3865625 8.7421875 6.7265625 C8.17065579 10.2888492 6.92160519 11.85712444 4.3046875 14.2890625 C2.04691933 16.40542557 0.48206227 18.11675035 -1.2578125 20.7265625 C-1.9178125 20.7265625 -2.5778125 20.7265625 -3.2578125 20.7265625 C-1.78452208 15.71737506 1.01733988 13.20848528 4.7421875 9.7265625 C4.13890625 10.14808594 3.535625 10.56960937 2.9140625 11.00390625 C2.11484375 11.55175781 1.315625 12.09960938 0.4921875 12.6640625 C-0.29671875 13.20933594 -1.085625 13.75460938 -1.8984375 14.31640625 C-4.08418243 15.62278691 -5.7731926 16.27636761 -8.2578125 16.7265625 C-6.94719659 12.49226494 -5.31424991 8.65248846 -3.2578125 4.7265625 C-3.98097656 5.5928125 -3.98097656 5.5928125 -4.71875 6.4765625 C-5.66621094 7.5903125 -5.66621094 7.5903125 -6.6328125 8.7265625 C-7.57253906 9.8403125 -7.57253906 9.8403125 -8.53125 10.9765625 C-9.10101563 11.5540625 -9.67078125 12.1315625 -10.2578125 12.7265625 C-10.9178125 12.7265625 -11.5778125 12.7265625 -12.2578125 12.7265625 C-10.92376531 8.80693932 -9.28427574 6.29682141 -6.3828125 3.3515625 C-5.70476563 2.64257812 -5.02671875 1.93359375 -4.328125 1.203125 C-2.2578125 -0.2734375 -2.2578125 -0.2734375 0 0 Z " fill="#1B1B1B" transform="translate(67.2578125,156.2734375)"/>
<path d="M0 0 C5.68502535 1.64566523 10.76681636 4.29032784 16 7 C15.67 7.99 15.34 8.98 15 10 C9.555 10.495 9.555 10.495 4 11 C7.3 12.65 10.6 14.3 14 16 C14 16.99 14 17.98 14 19 C8.06 19 2.12 19 -4 19 C-4 18.34 -4 17.68 -4 17 C-0.04 16.67 3.92 16.34 8 16 C4.7 14.35 1.4 12.7 -2 11 C-2 10.01 -2 9.02 -2 8 C3.94 7.505 3.94 7.505 10 7 C6.37 5.35 2.74 3.7 -1 2 C-0.67 1.34 -0.34 0.68 0 0 Z " fill="#202020" transform="translate(176,118)"/>
<path d="M0 0 C0.66 0 1.32 0 2 0 C2 1.32 2 2.64 2 4 C2.65226562 3.98839844 3.30453125 3.97679688 3.9765625 3.96484375 C8.7761914 3.91529006 13.27784685 4.00586249 18 5 C17.67 5.66 17.34 6.32 17 7 C12.05 6.67 7.1 6.34 2 6 C2 8.64 2 11.28 2 14 C1.34 14.33 0.68 14.66 0 15 C0 12.03 0 9.06 0 6 C-10.23 6 -20.46 6 -31 6 C-31 8.31 -31 10.62 -31 13 C-31.33 13 -31.66 13 -32 13 C-32 9.7 -32 6.4 -32 3 C-21.44 3 -10.88 3 0 3 C0 2.01 0 1.02 0 0 Z " fill="#4BBE4F" transform="translate(129,119)"/>
<path d="M0 0 C0.33 0 0.66 0 1 0 C1.33 1.65 1.66 3.3 2 5 C4.41321672 5 6.82520818 4.98553996 9.23828125 4.96484375 C10.92968649 4.95554301 12.6210928 4.94643574 14.3125 4.9375 C15.57610352 4.92493164 15.57610352 4.92493164 16.86523438 4.91210938 C21.36468734 4.89451964 25.57078309 5.08236452 30 6 C30.33 6.99 30.66 7.98 31 9 C21.9278224 11.16004229 9.81634589 11.47085617 1 8 C-1 5 -1 5 -0.625 2.3125 C-0.41875 1.549375 -0.2125 0.78625 0 0 Z " fill="#9FCFA1" transform="translate(95,129)"/>
<path d="M0 0 C0.99 0 1.98 0 3 0 C3 0.99 3 1.98 3 3 C3.66 3 4.32 3 5 3 C5 2.01 5 1.02 5 0 C6.65 0 8.3 0 10 0 C10 2 10 2 8.390625 3.62109375 C7.68421875 4.22050781 6.9778125 4.81992188 6.25 5.4375 C5.55390625 6.03433594 4.8578125 6.63117188 4.140625 7.24609375 C3.08101562 8.11427734 3.08101562 8.11427734 2 9 C1.4121875 9.56460938 0.824375 10.12921875 0.21875 10.7109375 C-3.01249611 12.58824598 -6.12920446 12.32096978 -9.75 12.1875 C-10.44738281 12.17396484 -11.14476563 12.16042969 -11.86328125 12.14648438 C-13.57585541 12.1112945 -15.28802941 12.05749155 -17 12 C-17 11.01 -17 10.02 -17 9 C-16.33613281 8.98582031 -15.67226562 8.97164062 -14.98828125 8.95703125 C-9.03771761 8.64570256 -9.03771761 8.64570256 -4 5.625 C-2.60565237 3.79491873 -1.27622072 1.91433107 0 0 Z " fill="#BAE2BA" transform="translate(126,101)"/>
<path d="M0 0 C0.33 0 0.66 0 1 0 C1.33 1.65 1.66 3.3 2 5 C5.465 4.505 5.465 4.505 9 4 C9.33 5.32 9.66 6.64 10 8 C8.35 8.33 6.7 8.66 5 9 C4.67 9.99 4.34 10.98 4 12 C4.66 12 5.32 12 6 12 C6.33 13.32 6.66 14.64 7 16 C5.02 16 3.04 16 1 16 C1 16.66 1 17.32 1 18 C-0.32 18.33 -1.64 18.66 -3 19 C-3.33 17.02 -3.66 15.04 -4 13 C-3.01 13 -2.02 13 -1 13 C-1 12.34 -1 11.68 -1 11 C-2.32 10.67 -3.64 10.34 -5 10 C-4.34 9.34 -3.68 8.68 -3 8 C-3 7.01 -3 6.02 -3 5 C-2.34 5 -1.68 5 -1 5 C-0.67 3.35 -0.34 1.7 0 0 Z " fill="#17BA19" transform="translate(128,83)"/>
<path d="M0 0 C5.61 0.66 11.22 1.32 17 2 C17 2.99 17 3.98 17 5 C14.525 4.505 14.525 4.505 12 4 C10.97296252 9.55493924 10.97296252 9.55493924 12 15 C8.11602311 13.44997253 5.97020381 10.99523379 3.25 7.875 C2.45078125 6.96492187 1.6515625 6.05484375 0.828125 5.1171875 C-0.07679688 4.06917969 -0.07679688 4.06917969 -1 3 C-0.67 2.01 -0.34 1.02 0 0 Z " fill="#1A1A1A" transform="translate(170,138)"/>
<path d="M0 0 C0.99 0 1.98 0 3 0 C3.67548578 2.05962852 4.34004312 4.12284322 5 6.1875 C5.37125 7.33605469 5.7425 8.48460937 6.125 9.66796875 C6.90630553 12.64320812 7.18363306 14.95283896 7 18 C5 17 5 17 4 14 C1.69 13.67 -0.62 13.34 -3 13 C-3.33 14.32 -3.66 15.64 -4 17 C-4.66 17 -5.32 17 -6 17 C-5.45388522 11.81190963 -3.84540159 3.84540159 0 0 Z " fill="#0E0E0E" transform="translate(110,175)"/>
<path d="M0 0 C0 0.66 0 1.32 0 2 C-1.32 2.33 -2.64 2.66 -4 3 C-3.67 5.31 -3.34 7.62 -3 10 C-2.01 10.33 -1.02 10.66 0 11 C0 11.66 0 12.32 0 13 C-6.18160604 12.46246904 -11.326858 10.45417612 -17 8 C-16.8984375 6.140625 -16.8984375 6.140625 -16 4 C-13.1640625 2.734375 -13.1640625 2.734375 -9.625 1.75 C-8.46226562 1.41484375 -7.29953125 1.0796875 -6.1015625 0.734375 C-3 0 -3 0 0 0 Z " fill="#0D0D0D" transform="translate(193,106)"/>
<path d="M0 0 C1.58294782 -0.05437607 3.16644256 -0.09296271 4.75 -0.125 C5.63171875 -0.14820312 6.5134375 -0.17140625 7.421875 -0.1953125 C10.1135858 0.00860498 11.69904974 0.63448279 14 2 C13 5 13 5 10.41796875 6.640625 C9.35191406 7.17171875 8.28585938 7.7028125 7.1875 8.25 C6.12917969 8.79140625 5.07085937 9.3328125 3.98046875 9.890625 C0.97572265 11.00903639 -0.10225041 11.20681097 -3 10 C-3 7.36 -3 4.72 -3 2 C-2.67 2 -2.34 2 -2 2 C-1.67 3.98 -1.34 5.96 -1 8 C-0.67 5.36 -0.34 2.72 0 0 Z " fill="#ECF4ED" transform="translate(131,125)"/>
<path d="M0 0 C1.32 0.66 2.64 1.32 4 2 C4.33 1.34 4.66 0.68 5 0 C5.66 0.66 6.32 1.32 7 2 C4.09700957 6.40824473 1.08418637 10.71640781 -2 15 C-6.75 14.25 -6.75 14.25 -9 12 C-7.55575365 8.76138697 -5.74227753 6.38030837 -3.375 3.75 C-2.74335937 3.04359375 -2.11171875 2.3371875 -1.4609375 1.609375 C-0.97882813 1.07828125 -0.49671875 0.5471875 0 0 Z " fill="#06B707" transform="translate(73,66)"/>
<path d="M0 0 C-0.1409349 2.43787385 -0.28754542 4.87517853 -0.4375 7.3125 C-0.49647461 8.34793945 -0.49647461 8.34793945 -0.55664062 9.40429688 C-0.74927415 12.47161535 -1.02322717 15.06968152 -2 18 C-2.66 18 -3.32 18 -4 18 C-4.061875 17.21625 -4.12375 16.4325 -4.1875 15.625 C-4.74523104 12.80826116 -4.74523104 12.80826116 -7.3125 11.5625 C-9.97533604 10.75363013 -9.97533604 10.75363013 -12.3125 11.875 C-13.1478125 12.431875 -13.1478125 12.431875 -14 13 C-12.4700928 9.39438086 -10.31303068 7.0140801 -7.5625 4.25 C-6.78003906 3.45078125 -5.99757813 2.6515625 -5.19140625 1.828125 C-3 0 -3 0 0 0 Z " fill="#151515" transform="translate(83,167)"/>
<path d="M0 0 C6.27906977 0.34883721 6.27906977 0.34883721 8.9375 2.75 C10.1940179 5.41086144 10.38282495 7.09053036 10 10 C9.34 10.66 8.68 11.32 8 12 C4.10630688 11.9153545 2.44820405 11.41372682 -0.4375 8.75 C-2 6 -2 6 -1.8125 3.25 C-1 1 -1 1 0 0 Z " fill="#F0F0F0" transform="translate(156,160)"/>
<path d="M0 0 C0.66 0 1.32 0 2 0 C2.33292585 4.24480464 2.43885872 6.35542625 0 9.9375 C-0.66 10.618125 -1.32 11.29875 -2 12 C-4.16874252 11.49396008 -5.99967627 11.00016187 -8 10 C-8.66 11.32 -9.32 12.64 -10 14 C-12.375 14.125 -12.375 14.125 -15 14 C-15.66 13.34 -16.32 12.68 -17 12 C-16.625 8.375 -16.625 8.375 -16 5 C-15.67 5 -15.34 5 -15 5 C-14.67 6.65 -14.34 8.3 -14 10 C-11.00675737 8.9024777 -10.15389099 8.32317108 -8.75 5.375 C-8.37875 4.199375 -8.37875 4.199375 -8 3 C-7.34 3 -6.68 3 -6 3 C-5.67 3.99 -5.34 4.98 -5 6 C-3.68 5.67 -2.36 5.34 -1 5 C-0.67 3.35 -0.34 1.7 0 0 Z " fill="#1E1E1E" transform="translate(105,105)"/>
<path d="M0 0 C0.66 0 1.32 0 2 0 C3.33858524 2.28874173 4.67101014 4.58069656 6 6.875 C6.3815625 7.52597656 6.763125 8.17695313 7.15625 8.84765625 C10 13.7734375 10 13.7734375 10 16 C9.01 15.67 8.02 15.34 7 15 C5.8125 12.4375 5.8125 12.4375 5 10 C3.02 10.99 1.04 11.98 -1 13 C-0.67 13.763125 -0.34 14.52625 0 15.3125 C1 18 1 18 1 21 C-3.03625076 19.65458308 -3.85447953 17.14052535 -5.6875 13.5625 C-6.00783203 12.96373047 -6.32816406 12.36496094 -6.65820312 11.74804688 C-9 7.28914579 -9 7.28914579 -9 5 C-6 6 -6 6 -4.8125 8.0625 C-4.544375 8.701875 -4.27625 9.34125 -4 10 C-1.69 9.34 0.62 8.68 3 8 C2.505 7.236875 2.01 6.47375 1.5 5.6875 C0 3 0 3 0 0 Z " fill="#161616" transform="translate(147,164)"/>
<path d="M0 0 C2.1583195 6.07027358 2.20852314 11.59370576 2 18 C0.046875 17.3515625 0.046875 17.3515625 -2 16 C-2.609375 13.3984375 -2.609375 13.3984375 -2.75 10.375 C-2.80671875 9.37210938 -2.8634375 8.36921875 -2.921875 7.3359375 C-2.94765625 6.56507812 -2.9734375 5.79421875 -3 5 C-3.66 5 -4.32 5 -5 5 C-5 8.3 -5 11.6 -5 15 C-5.66 14.67 -6.32 14.34 -7 14 C-7 11.03 -7 8.06 -7 5 C-7.66 4.67 -8.32 4.34 -9 4 C-2.25 0 -2.25 0 0 0 Z " fill="#08B709" transform="translate(170,93)"/>
<path d="M0 0 C4.12225253 1.5458447 5.66668168 3.41914149 8 7.125 C8.5625 10.8125 8.5625 10.8125 8 14.125 C6.4375 16.125 6.4375 16.125 4 17.125 C-0.67697126 17.21003584 -2.46105358 16.61807864 -5.9375 13.4375 C-8.19191364 9.81677507 -8.90387923 8.28284446 -8 4.125 C-5.39248196 1.13402343 -3.98730705 0.16613779 0 0 Z M-6 5.125 C-5.90338088 8.69990748 -4.97391225 10.15833435 -2.75 13 C-0.21558241 15.43183746 -0.21558241 15.43183746 2.75 15 C4.93516519 14.32408102 4.93516519 14.32408102 6 13.125 C5.78111785 8.21458091 5.78111785 8.21458091 3.25 4.1875 C-0.49384001 2.41957555 -3.00262813 2.12762813 -6 5.125 Z " fill="#050505" transform="translate(160,156.875)"/>
<path d="M0 0 C0.48210937 0.433125 0.96421875 0.86625 1.4609375 1.3125 C2.09257812 1.869375 2.72421875 2.42625 3.375 3 C4.00148437 3.556875 4.62796875 4.11375 5.2734375 4.6875 C6.90389833 6.20172487 6.90389833 6.20172487 9 6 C9.66 5.34 10.32 4.68 11 4 C11.268125 4.639375 11.53625 5.27875 11.8125 5.9375 C12.88667752 8.33131686 12.88667752 8.33131686 16 9 C17.1875 12.5625 17.1875 12.5625 18 16 C16.35 16.66 14.7 17.32 13 18 C12.54625 17.175 12.0925 16.35 11.625 15.5 C11.08875 14.675 10.5525 13.85 10 13 C9.34 13 8.68 13 8 13 C8 11.68 8 10.36 8 9 C5.34771188 7.92474806 2.71631546 6.90543849 0 6 C0 4.02 0 2.04 0 0 Z " fill="#DBF0DD" transform="translate(147,68)"/>
<path d="M0 0 C0.99 0 1.98 0 3 0 C2.69052329 1.93798521 2.37731166 3.87537426 2.0625 5.8125 C1.88847656 6.89144531 1.71445313 7.97039062 1.53515625 9.08203125 C1 12 1 12 0 15 C-0.1418907 16.68358775 -0.22014505 18.37320743 -0.25 20.0625 C-0.28867188 21.37927734 -0.28867188 21.37927734 -0.328125 22.72265625 C-0.21984375 23.47417969 -0.1115625 24.22570312 0 25 C3.03525486 27.02350324 4.19426202 27.32124018 7.6875 27.625 C8.49574219 27.69976562 9.30398437 27.77453125 10.13671875 27.8515625 C10.75160156 27.90054688 11.36648437 27.94953125 12 28 C12 28.33 12 28.66 12 29 C1.87719977 30.60568555 1.87719977 30.60568555 -1.625 28.1875 C-5.34903054 22.26290596 -3.61712512 16.02358656 -2.26171875 9.3828125 C-1.53776525 6.24682436 -0.78874862 3.12026971 0 0 Z " fill="#D9E3D9" transform="translate(68,109)"/>
<path d="M0 0 C1.670625 0.061875 1.670625 0.061875 3.375 0.125 C3.705 1.445 4.035 2.765 4.375 4.125 C2.065 3.795 -0.245 3.465 -2.625 3.125 C-2.625 4.115 -2.625 5.105 -2.625 6.125 C-0.706875 6.310625 -0.706875 6.310625 1.25 6.5 C5.125 6.875 5.125 6.875 7.375 9.125 C7.6875 12.125 7.6875 12.125 7.375 15.125 C3.9397952 17.41513653 2.389669 17.30342973 -1.625 17.125 C-2.285 15.805 -2.945 14.485 -3.625 13.125 C-0.985 13.455 1.655 13.785 4.375 14.125 C4.045 12.805 3.715 11.485 3.375 10.125 C2.26125 10.00125 1.1475 9.8775 0 9.75 C-3.625 9.125 -3.625 9.125 -5.625 7.125 C-5.875 4.625 -5.875 4.625 -5.625 2.125 C-3.625 0.125 -3.625 0.125 0 0 Z " fill="#121212" transform="translate(132.625,171.875)"/>
<path d="M0 0 C5.12583611 -0.10251672 9.94997778 -0.03590199 15 1 C12.53175599 3.91019311 10.06919902 4.93540196 6.5 6.1875 C5.5409375 6.53167969 4.581875 6.87585938 3.59375 7.23046875 C1 8 1 8 -2 8 C-1.125 2.25 -1.125 2.25 0 0 Z " fill="#EBF7ED" transform="translate(126,158)"/>
<path d="M0 0 C0.99 0.33 1.98 0.66 3 1 C2.58685438 5.44926052 -0.50461527 7.84100104 -3.5625 10.75 C-4.08263672 11.25660156 -4.60277344 11.76320312 -5.13867188 12.28515625 C-6.41910084 13.53034405 -7.70867554 14.76611502 -9 16 C-9.99 15.67 -10.98 15.34 -12 15 C-11.58685438 10.55073948 -8.49538473 8.15899896 -5.4375 5.25 C-4.91736328 4.74339844 -4.39722656 4.23679688 -3.86132812 3.71484375 C-2.58089916 2.46965595 -1.29132446 1.23388498 0 0 Z " fill="#0DB30F" transform="translate(178,166)"/>
<path d="M0 0 C2.44799863 2.44799863 3.02552278 4.47600116 4.125 7.75 C4.47820312 8.77609375 4.83140625 9.8021875 5.1953125 10.859375 C6.19012411 14.7420378 6.83915426 18.32169148 5 22 C4.34 22 3.68 22 3 22 C2.13118459 19.44165429 1.2797867 16.87957539 0.4375 14.3125 C0.19064453 13.59126953 -0.05621094 12.87003906 -0.31054688 12.12695312 C-1.62114259 8.08441143 -2.46033386 5.17352245 -1 1 C-0.67 0.67 -0.34 0.34 0 0 Z " fill="#02B503" transform="translate(193,74)"/>
<path d="M0 0 C1.79244141 0.01740234 1.79244141 0.01740234 3.62109375 0.03515625 C5.41740234 0.04869141 5.41740234 0.04869141 7.25 0.0625 C8.17683594 0.07410156 9.10367188 0.08570313 10.05859375 0.09765625 C10.05859375 1.08765625 10.05859375 2.07765625 10.05859375 3.09765625 C5.09599118 5.01304672 0.19232537 6.7072706 -4.94140625 8.09765625 C-3.92739073 0.13039146 -3.92739073 0.13039146 0 0 Z " fill="#EAF5EA" transform="translate(109.94140625,55.90234375)"/>
<path d="M0 0 C2.04296875 2.40625 2.04296875 2.40625 4.1875 5.5 C5.26064453 7.03140625 5.26064453 7.03140625 6.35546875 8.59375 C6.89816406 9.3878125 7.44085938 10.181875 8 11 C7.01 11.495 7.01 11.495 6 12 C6 12.66 6 13.32 6 14 C6.66 14 7.32 14 8 14 C7.67 14.99 7.34 15.98 7 17 C5.55410731 15.46620188 4.11865196 13.92256145 2.6875 12.375 C1.48673828 11.08722656 1.48673828 11.08722656 0.26171875 9.7734375 C-2.01794872 6.97799034 -3.51580738 4.27579084 -5 1 C-3 0 -3 0 0 0 Z " fill="#0FB610" transform="translate(42,158)"/>
<path d="M0 0 C0.99 0 1.98 0 3 0 C4.35439668 2.70879335 4.06501451 5.00933268 4 8 C0.7 8 -2.6 8 -6 8 C-6.33 9.32 -6.66 10.64 -7 12 C-8.65 11.67 -10.3 11.34 -12 11 C-11.67 9.35 -11.34 7.7 -11 6 C-10.01 7.485 -10.01 7.485 -9 9 C-8.34 8.01 -7.68 7.02 -7 6 C-6.01 6 -5.02 6 -4 6 C-3.67 5.34 -3.34 4.68 -3 4 C-2.01 4 -1.02 4 0 4 C0 2.68 0 1.36 0 0 Z " fill="#70C574" transform="translate(97,83)"/>
<path d="M0 0 C2.97 0.99 5.94 1.98 9 3 C9 3.66 9 4.32 9 5 C6.36 4.67 3.72 4.34 1 4 C0.67 5.32 0.34 6.64 0 8 C1.65 8.33 3.3 8.66 5 9 C5 9.66 5 10.32 5 11 C2.69 10.67 0.38 10.34 -2 10 C-2.33 11.98 -2.66 13.96 -3 16 C-3.99 16 -4.98 16 -6 16 C-4.43551329 10.3856009 -2.83604813 5.13189662 0 0 Z " fill="#141414" transform="translate(90,171)"/>
<path d="M0 0 C0.99 0 1.98 0 3 0 C3.625 2.375 3.625 2.375 4 5 C3.34 5.66 2.68 6.32 2 7 C1.67 6.01 1.34 5.02 1 4 C-1.97 10.27 -4.94 16.54 -8 23 C-8.66 22.67 -9.32 22.34 -10 22 C-8.4719611 16.90117545 -6.28963144 12.34334341 -3.875 7.625 C-3.50246094 6.88894531 -3.12992188 6.15289062 -2.74609375 5.39453125 C-1.8343878 3.59449642 -0.91770068 1.79698598 0 0 Z " fill="#E4EEE4" transform="translate(67,104)"/>
<path d="M0 0 C-0.66 2.31 -1.32 4.62 -2 7 C-8.93 6.505 -8.93 6.505 -16 6 C-16 5.34 -16 4.68 -16 4 C-14.274773 3.32320342 -12.54461061 2.65898 -10.8125 2 C-9.84957031 1.62875 -8.88664062 1.2575 -7.89453125 0.875 C-5.07817642 0.02363228 -2.91835561 -0.17072647 0 0 Z " fill="#E4F4E6" transform="translate(104,57)"/>
<path d="M0 0 C0.391875 0.495 0.78375 0.99 1.1875 1.5 C3.55091715 3.45593143 5.01435003 3.24207973 8 3 C7.67 3.763125 7.34 4.52625 7 5.3125 C5.82563314 7.99069135 5.82563314 7.99069135 6 11 C5.21625 11.144375 4.4325 11.28875 3.625 11.4375 C1.03578982 11.87798925 1.03578982 11.87798925 -1 13 C-1.103125 12.21625 -1.20625 11.4325 -1.3125 10.625 C-1.77595022 7.66954819 -1.77595022 7.66954819 -5 6 C-3.35 5.67 -1.7 5.34 0 5 C0 3.35 0 1.7 0 0 Z " fill="#181818" transform="translate(39,101)"/>
<path d="M0 0 C0.99 0.33 1.98 0.66 3 1 C3 2.32 3 3.64 3 5 C4.7634375 4.505 4.7634375 4.505 6.5625 4 C10.5011676 3.0030467 13.95139129 2.83130797 18 3 C18 3.66 18 4.32 18 5 C8.58997722 7.29612756 8.58997722 7.29612756 4 7 C4 8.65 4 10.3 4 12 C3.34 12 2.68 12 2 12 C1.34 8.04 0.68 4.08 0 0 Z " fill="#1F1F1F" transform="translate(174,96)"/>
<path d="M0 0 C0.66 0.66 1.32 1.32 2 2 C5.08347826 2.16681109 5.08347826 2.16681109 8 2 C7.01 3.485 7.01 3.485 6 5 C6.31506627 8.14221967 6.31506627 8.14221967 7 11 C6.236875 10.773125 5.47375 10.54625 4.6875 10.3125 C3.3571875 10.1578125 3.3571875 10.1578125 2 10 C0.1645201 11.33378575 0.1645201 11.33378575 -1 13 C-1.103125 12.21625 -1.20625 11.4325 -1.3125 10.625 C-1.77595022 7.66954819 -1.77595022 7.66954819 -5 6 C-3.35 5.67 -1.7 5.34 0 5 C0 3.35 0 1.7 0 0 Z " fill="#141414" transform="translate(92,36)"/>
<path d="M0 0 C1.423125 0.2784375 1.423125 0.2784375 2.875 0.5625 C5.89868793 1.28686632 5.89868793 1.28686632 8 0 C7.95875 0.763125 7.9175 1.52625 7.875 2.3125 C7.77919176 5.22718416 7.77919176 5.22718416 10 8 C8.35 8 6.7 8 5 8 C4.67 9.32 4.34 10.64 4 12 C3.67 10.68 3.34 9.36 3 8 C1.35 8 -0.3 8 -2 8 C-1.34 7.01 -0.68 6.02 0 5 C0.16713569 2.37468476 0.16713569 2.37468476 0 0 Z " fill="#0E0E0E" transform="translate(39,124)"/>
<path d="M0 0 C0.66 0.33 1.32 0.66 2 1 C2 1.99 2 2.98 2 4 C3.65 4 5.3 4 7 4 C6.54625 4.4125 6.0925 4.825 5.625 5.25 C3.94049626 7.06408095 3.00734029 8.75285627 2 11 C1.01 10.67 0.02 10.34 -1 10 C-1.99 10.33 -2.98 10.66 -4 11 C-3.95875 10.236875 -3.9175 9.47375 -3.875 8.6875 C-3.77919176 5.77281584 -3.77919176 5.77281584 -6 3 C-5.195625 2.87625 -4.39125 2.7525 -3.5625 2.625 C-2.716875 2.41875 -1.87125 2.2125 -1 2 C-0.67 1.34 -0.34 0.68 0 0 Z " fill="#111111" transform="translate(45,80)"/>
<path d="M0 0 C0.33 0 0.66 0 1 0 C1 1.65 1 3.3 1 5 C2.32 5.66 3.64 6.32 5 7 C4.071875 7.12375 4.071875 7.12375 3.125 7.25 C0.81562433 7.81258459 0.81562433 7.81258459 -0.25 10.0625 C-0.4975 10.701875 -0.745 11.34125 -1 12 C-1.33 11.01 -1.66 10.02 -2 9 C-3.98 9.33 -5.96 9.66 -8 10 C-7.34 9.01 -6.68 8.02 -6 7 C-5.83286431 4.37468476 -5.83286431 4.37468476 -6 2 C-4.7934375 1.7834375 -4.7934375 1.7834375 -3.5625 1.5625 C-1.07896294 1.25864751 -1.07896294 1.25864751 0 0 Z " fill="#121212" transform="translate(58,61)"/>
<path d="M0 0 C1.30048841 2.60097682 1.56471422 5.13955062 2 8 C0.68 8 -0.64 8 -2 8 C-2.33 9.65 -2.66 11.3 -3 13 C-3.66 12.01 -4.32 11.02 -5 10 C-7.56282742 9.27034634 -7.56282742 9.27034634 -10 9 C-9.34 8.01 -8.68 7.02 -8 6 C-7.34 6 -6.68 6 -6 6 C-6.33 4.35 -6.66 2.7 -7 1 C-5.824375 1.309375 -5.824375 1.309375 -4.625 1.625 C-3.75875 1.74875 -2.8925 1.8725 -2 2 C-1.34 1.34 -0.68 0.68 0 0 Z " fill="#161616" transform="translate(159,48)"/>
<path d="M0 0 C3.03852705 1.40976705 5.5939595 3.08870228 8.25 5.125 C8.95640625 5.66382813 9.6628125 6.20265625 10.390625 6.7578125 C10.92171875 7.16773438 11.4528125 7.57765625 12 8 C13.98 6.35 15.96 4.7 18 3 C17.52653243 7.26120815 14.97938092 9.13466237 12 12 C9.99092002 10.57391198 7.99330486 9.13533968 6 7.6875 C5.42765625 7.28337891 4.8553125 6.87925781 4.265625 6.46289062 C2.78791356 5.38099475 1.38745891 4.19544451 0 3 C0 2.01 0 1.02 0 0 Z " fill="#161616" transform="translate(161,152)"/>
<path d="M0 0 C1.1446875 0.556875 1.1446875 0.556875 2.3125 1.125 C3.6428125 1.558125 3.6428125 1.558125 5 2 C5.99 1.34 6.98 0.68 8 0 C7.67 1.98 7.34 3.96 7 6 C7.99 6.33 8.98 6.66 10 7 C10 7.33 10 7.66 10 8 C8.35 8 6.7 8 5 8 C4.67 9.65 4.34 11.3 4 13 C2 10 2 10 2 8 C0.68 7.67 -0.64 7.34 -2 7 C-1.01 6.67 -0.02 6.34 1 6 C0.67 4.02 0.34 2.04 0 0 Z " fill="#0C0C0C" transform="translate(69,46)"/>
<path d="M0 0 C0.33 1.32 0.66 2.64 1 4 C2.65 4.33 4.3 4.66 6 5 C5.360625 5.226875 4.72125 5.45375 4.0625 5.6875 C1.72806339 6.85250896 1.72806339 6.85250896 1.25 9.625 C1.1675 10.40875 1.085 11.1925 1 12 C0.5875 11.505 0.175 11.01 -0.25 10.5 C-2.12202338 8.56613908 -2.12202338 8.56613908 -6 9 C-5.814375 8.236875 -5.62875 7.47375 -5.4375 6.6875 C-4.77180827 3.91032625 -4.77180827 3.91032625 -6 1 C-4.7934375 1.0309375 -4.7934375 1.0309375 -3.5625 1.0625 C-1.06645115 1.29633621 -1.06645115 1.29633621 0 0 Z " fill="#0B0B0B" transform="translate(138,39)"/>
<path d="M0 0 C0.2475 0.61875 0.495 1.2375 0.75 1.875 C2.20628639 4.35068687 3.37812506 4.95125002 6 6 C5.01 6.33 4.02 6.66 3 7 C3 8.65 3 10.3 3 12 C2.21625 11.814375 1.4325 11.62875 0.625 11.4375 C-1.97089775 10.74037734 -1.97089775 10.74037734 -4 12 C-3.67 10.35 -3.34 8.7 -3 7 C-3.99 6.67 -4.98 6.34 -6 6 C-5.38125 5.7525 -4.7625 5.505 -4.125 5.25 C-1.64931313 3.79371361 -1.04874998 2.62187494 0 0 Z " fill="#0E0E0E" transform="translate(116,33)"/>
<path d="M0 0 C0.33 1.98 0.66 3.96 1 6 C1.99 6.33 2.98 6.66 4 7 C4 7.66 4 8.32 4 9 C-2.5130527 8.26267328 -5.4819408 6.67385435 -10 2 C-6.49223216 0.39644899 -3.85645121 -0.22036864 0 0 Z " fill="#232323" transform="translate(189,110)"/>
<path d="M0 0 C5.69139902 1.09698167 10.74567937 2.54053077 16 5 C15.67 5.66 15.34 6.32 15 7 C4.44191344 6.22095672 4.44191344 6.22095672 0 4 C0 2.68 0 1.36 0 0 Z " fill="#04B504" transform="translate(135,26)"/>
<path d="M0 0 C0.33 0 0.66 0 1 0 C1.66 3.3 2.32 6.6 3 10 C2.01 10.495 2.01 10.495 1 11 C1 11.99 1 12.98 1 14 C-3.455 13.01 -3.455 13.01 -8 12 C-7.34 11.67 -6.68 11.34 -6 11 C-6 10.01 -6 9.02 -6 8 C-3.03 8.495 -3.03 8.495 0 9 C-0.185625 7.700625 -0.37125 6.40125 -0.5625 5.0625 C-0.87890625 2.84765625 -0.87890625 2.84765625 -1 1 C-0.67 0.67 -0.34 0.34 0 0 Z " fill="#10B611" transform="translate(101,157)"/>
<path d="M0 0 C0.33 0 0.66 0 1 0 C0.8590651 2.43787385 0.71245458 4.87517853 0.5625 7.3125 C0.50352539 8.34793945 0.50352539 8.34793945 0.44335938 9.40429688 C0.25072585 12.47161535 -0.02322717 15.06968152 -1 18 C-1.66 18 -2.32 18 -3 18 C-3.061875 16.8553125 -3.061875 16.8553125 -3.125 15.6875 C-3.77823609 12.67594887 -3.77823609 12.67594887 -7.0625 11.1875 C-8.5165625 10.5996875 -8.5165625 10.5996875 -10 10 C-9.01 9.01 -8.02 8.02 -7 7 C-6.319375 7.7115625 -6.319375 7.7115625 -5.625 8.4375 C-4.06741796 10.09027808 -4.06741796 10.09027808 -2 11 C-1.93941406 10.28972656 -1.87882812 9.57945312 -1.81640625 8.84765625 C-1.73261719 7.92855469 -1.64882812 7.00945312 -1.5625 6.0625 C-1.48128906 5.14597656 -1.40007812 4.22945312 -1.31640625 3.28515625 C-1 1 -1 1 0 0 Z " fill="#090909" transform="translate(82,167)"/>
<path d="M0 0 C2.28062828 3.42094242 2.21925007 4.68187222 2.125 8.6875 C2.10695313 9.68136719 2.08890625 10.67523438 2.0703125 11.69921875 C2.03550781 12.83810547 2.03550781 12.83810547 2 14 C1.01 14.33 0.02 14.66 -1 15 C-1.93619813 11.84493858 -2.1057123 9.03413498 -2.0625 5.75 C-2.05347656 4.85796875 -2.04445313 3.9659375 -2.03515625 3.046875 C-2.02355469 2.37140625 -2.01195313 1.6959375 -2 1 C-1.34 0.67 -0.68 0.34 0 0 Z " fill="#06B806" transform="translate(26,115)"/>
<path d="M0 0 C1.81455688 0.07069702 1.81455688 0.07069702 3.66577148 0.14282227 C5.62353516 0.21533203 5.62353516 0.21533203 7.62084961 0.28930664 C9.00952598 0.34583683 10.39819781 0.40247892 11.78686523 0.45922852 C13.17942544 0.51243399 14.5720035 0.56517448 15.96459961 0.61743164 C19.38472504 0.74760943 22.80459448 0.88259032 26.22436523 1.02172852 C26.22436523 1.35172852 26.22436523 1.68172852 26.22436523 2.02172852 C16.98436523 2.02172852 7.74436523 2.02172852 -1.77563477 2.02172852 C-1.44563477 5.65172852 -1.11563477 9.28172852 -0.77563477 13.02172852 C-1.43563477 12.69172852 -2.09563477 12.36172852 -2.77563477 12.02172852 C-3.22485352 9.55297852 -3.22485352 9.55297852 -3.46313477 6.52172852 C-3.54950195 5.52141602 -3.63586914 4.52110352 -3.72485352 3.49047852 C-3.74161133 2.67579102 -3.75836914 1.86110352 -3.77563477 1.02172852 C-2.77563477 0.02172852 -2.77563477 0.02172852 0 0 Z " fill="#08B70A" transform="translate(98.775634765625,121.978271484375)"/>
<path d="M0 0 C0.66 0.33 1.32 0.66 2 1 C1.48223379 5.10447392 -0.64627444 6.95699523 -3.5625 9.75 C-4.80193359 10.94882812 -4.80193359 10.94882812 -6.06640625 12.171875 C-6.70449219 12.77515625 -7.34257813 13.3784375 -8 14 C-8.66 13.67 -9.32 13.34 -10 13 C-8.48446596 9.52224821 -6.4226544 7.0442016 -3.875 4.25 C-3.15054688 3.45078125 -2.42609375 2.6515625 -1.6796875 1.828125 C-0.84824219 0.92320313 -0.84824219 0.92320313 0 0 Z " fill="#F1F8F1" transform="translate(54,39)"/>
<path d="M0 0 C2 1 2 1 3 3 C1.35 3.66 -0.3 4.32 -2 5 C-1.5206753 9.31392226 -0.2542015 11.16569547 3 14 C2.67 14.99 2.34 15.98 2 17 C-4.80455016 11.49844881 -4.80455016 11.49844881 -5.375 7.125 C-5 4 -5 4 -2.5 1.625 C-1.2625 0.820625 -1.2625 0.820625 0 0 Z " fill="#121212" transform="translate(157,157)"/>
<path d="M0 0 C1.8125 0.1875 1.8125 0.1875 4 1 C5.04892238 2.63631892 6.04906703 4.30485863 7 6 C9.90092502 7.93395001 10.89674737 8.30131941 14.1875 8.625 C15.445625 8.74875 16.70375 8.8725 18 9 C18 9.33 18 9.66 18 10 C13.57613298 10.46635201 9.40430229 10.7144994 5 10 C2.36796853 7.72168027 1.07651056 5.2889709 0 2 C0 1.34 0 0.68 0 0 Z " fill="#D0ECD4" transform="translate(77,113)"/>
<path d="M0 0 C0.33 0 0.66 0 1 0 C1.33 3.3 1.66 6.6 2 10 C1.34 10 0.68 10 0 10 C-0.33 16.6 -0.66 23.2 -1 30 C-1.33 30 -1.66 30 -2 30 C-2.33 22.08 -2.66 14.16 -3 6 C-2.34 6 -1.68 6 -1 6 C-0.67 4.02 -0.34 2.04 0 0 Z " fill="#41BD42" transform="translate(199,90)"/>
<path d="M0 0 C0.33 0 0.66 0 1 0 C1.33 1.65 1.66 3.3 2 5 C5.465 4.505 5.465 4.505 9 4 C9.33 5.32 9.66 6.64 10 8 C6.37 8 2.74 8 -1 8 C-1.33 8.99 -1.66 9.98 -2 11 C-2.99 10.67 -3.98 10.34 -5 10 C-4.34 9.34 -3.68 8.68 -3 8 C-3 7.01 -3 6.02 -3 5 C-2.34 5 -1.68 5 -1 5 C-0.67 3.35 -0.34 1.7 0 0 Z " fill="#B7E2BB" transform="translate(128,83)"/>
<path d="M0 0 C0.66 0.33 1.32 0.66 2 1 C2 2.98 2 4.96 2 7 C-4.0546875 7.1953125 -4.0546875 7.1953125 -6 7 C-6.66 6.34 -7.32 5.68 -8 5 C-6.71475739 4.13619741 -5.42157581 3.28419631 -4.125 2.4375 C-3.04605469 1.72400391 -3.04605469 1.72400391 -1.9453125 0.99609375 C-1.30335938 0.66738281 -0.66140625 0.33867188 0 0 Z " fill="#D8E4D9" transform="translate(150,100)"/>
<path d="M0 0 C1.65 0.33 3.3 0.66 5 1 C5 1.99 5 2.98 5 4 C-0.94 4 -6.88 4 -13 4 C-13 3.34 -13 2.68 -13 2 C-6.565 1.505 -6.565 1.505 0 1 C0 0.67 0 0.34 0 0 Z " fill="#050505" transform="translate(185,133)"/>
<path d="M0 0 C0.66 0.33 1.32 0.66 2 1 C2.08078641 3.12438339 2.13909141 5.2496323 2.1875 7.375 C2.22230469 8.55835937 2.25710937 9.74171875 2.29296875 10.9609375 C2.19628906 11.96382812 2.09960938 12.96671875 2 14 C1.01 14.66 0.02 15.32 -1 16 C-1.02685095 13.52076199 -1.04676547 11.0418116 -1.0625 8.5625 C-1.07506836 7.50192383 -1.07506836 7.50192383 -1.08789062 6.41992188 C-1.09653588 4.61306441 -1.05220011 2.80612397 -1 1 C-0.67 0.67 -0.34 0.34 0 0 Z " fill="#00B500" transform="translate(199,99)"/>
<path d="M0 0 C3.96 0 7.92 0 12 0 C8.54602565 3.45397435 7.30872286 4.56375905 3 6 C0 2.25 0 2.25 0 0 Z " fill="#0AB60C" transform="translate(145,117)"/>
<path d="M0 0 C0.66 0.33 1.32 0.66 2 1 C1.67 1.66 1.34 2.32 1 3 C1.76848684 5.46987439 1.76848684 5.46987439 2.9375 8.125 C3.50791016 9.49011719 3.50791016 9.49011719 4.08984375 10.8828125 C4.39019531 11.58148438 4.69054687 12.28015625 5 13 C4.34 13.66 3.68 14.32 3 15 C-1 8.25 -1 8.25 -1 6 C-1.66 6 -2.32 6 -3 6 C-3.33 6.66 -3.66 7.32 -4 8 C-3.40072174 4.64404172 -2.15377564 2.62198774 0 0 Z " fill="#E6EAE6" transform="translate(150,158)"/>
<path d="M0 0 C0.99 0 1.98 0 3 0 C4.6875 2 4.6875 2 6 4 C4.68 6.31 3.36 8.62 2 11 C1.34 10.67 0.68 10.34 0 10 C-0.89093449 6.35526801 -1.23666047 3.57257469 0 0 Z " fill="#26BC28" transform="translate(54,116)"/>
<path d="M0 0 C0.33 1.32 0.66 2.64 1 4 C0.01 3.67 -0.98 3.34 -2 3 C-2.33 3.66 -2.66 4.32 -3 5 C-3.66 5 -4.32 5 -5 5 C-5 8.3 -5 11.6 -5 15 C-5.66 14.67 -6.32 14.34 -7 14 C-7 11.03 -7 8.06 -7 5 C-7.66 4.67 -8.32 4.34 -9 4 C-2.25 0 -2.25 0 0 0 Z " fill="#27B72A" transform="translate(170,93)"/>
<path d="M0 0 C0.66 0 1.32 0 2 0 C2.33 0.99 2.66 1.98 3 3 C3.99 3.33 4.98 3.66 6 4 C6.33 4.99 6.66 5.98 7 7 C6 8 6 8 2.4375 8.0625 C1.303125 8.041875 0.16875 8.02125 -1 8 C-1.33 9.32 -1.66 10.64 -2 12 C-3.32 11.67 -4.64 11.34 -6 11 C-5.01 10.67 -4.02 10.34 -3 10 C-3 9.01 -3 8.02 -3 7 C-1.68 7 -0.36 7 1 7 C0.67 4.69 0.34 2.38 0 0 Z " fill="#B2E1B7" transform="translate(110,83)"/>
<path d="M0 0 C-0.33 2.97 -0.66 5.94 -1 9 C-2.32 9 -3.64 9 -5 9 C-5.33 7.02 -5.66 5.04 -6 3 C-2.25 0 -2.25 0 0 0 Z " fill="#EBF7EB" transform="translate(70,88)"/>
<path d="M0 0 C2.44290259 0.18430182 4.81586425 0.51046736 7.23242188 0.91259766 C8.493125 1.08952148 8.493125 1.08952148 9.77929688 1.27001953 C11.85057844 1.56423566 13.91711662 1.89150411 15.98242188 2.22509766 C15.98242188 2.55509766 15.98242188 2.88509766 15.98242188 3.22509766 C14.89703125 3.28568359 13.81164062 3.34626953 12.69335938 3.40869141 C11.24803702 3.4931583 9.80272505 3.57780316 8.35742188 3.66259766 C7.64457031 3.70191406 6.93171875 3.74123047 6.19726562 3.78173828 C2.06438506 4.02819446 -1.94026836 4.45979819 -6.01757812 5.22509766 C-3.30200461 0.36839887 -3.30200461 0.36839887 0 0 Z " fill="#E3E4E3" transform="translate(142.017578125,105.77490234375)"/>
<path d="M0 0 C0.66 0.33 1.32 0.66 2 1 C0.7934375 2.0828125 0.7934375 2.0828125 -0.4375 3.1875 C-3.09180488 6.10076146 -3.49258978 7.24516438 -4 11 C-4.66 11.66 -5.32 12.32 -6 13 C-6 12.34 -6 11.68 -6 11 C-7.98 11.99 -7.98 11.99 -10 13 C-8.48446596 9.52224821 -6.4226544 7.0442016 -3.875 4.25 C-3.15054688 3.45078125 -2.42609375 2.6515625 -1.6796875 1.828125 C-0.84824219 0.92320313 -0.84824219 0.92320313 0 0 Z " fill="#E2E4E2" transform="translate(48,44)"/>
<path d="M0 0 C0.66 0 1.32 0 2 0 C1.03644647 11.52164009 1.03644647 11.52164009 0 17 C-0.99 17 -1.98 17 -3 17 C-2.01 11.39 -1.02 5.78 0 0 Z " fill="#0F0F0F" transform="translate(101,174)"/>
<path d="M0 0 C1.32 0.33 2.64 0.66 4 1 C3.60196439 3.88575819 3.20990931 4.82189513 0.9375 6.75 C0.298125 7.1625 -0.34125 7.575 -1 8 C-2.32 7.34 -3.64 6.68 -5 6 C-3.35 4.02 -1.7 2.04 0 0 Z " fill="#03B604" transform="translate(146,155)"/>
<path d="M0 0 C0.66 0.33 1.32 0.66 2 1 C1.34 1.66 0.68 2.32 0 3 C0.99 3.66 1.98 4.32 3 5 C2.67 6.65 2.34 8.3 2 10 C1.01 10 0.02 10 -1 10 C-1 9.01 -1 8.02 -1 7 C-2.32 7.33 -3.64 7.66 -5 8 C-1.125 1.125 -1.125 1.125 0 0 Z " fill="#21BB23" transform="translate(65,75)"/>
<path d="M0 0 C0 0.66 0 1.32 0 2 C-1.53125 3.2890625 -1.53125 3.2890625 -3.5 4.625 C-4.47453125 5.29402344 -4.47453125 5.29402344 -5.46875 5.9765625 C-5.9740625 6.31429687 -6.479375 6.65203125 -7 7 C-7.33 6.01 -7.66 5.02 -8 4 C-7.67 3.67 -7.34 3.34 -7 3 C-10.3 2.67 -13.6 2.34 -17 2 C-17 1.67 -17 1.34 -17 1 C-14.9168207 0.83141902 -12.83344956 0.66520745 -10.75 0.5 C-9.58984375 0.4071875 -8.4296875 0.314375 -7.234375 0.21875 C-4.82731342 0.05595356 -2.41256049 0 0 0 Z " fill="#C3E0C5" transform="translate(162,115)"/>
<path d="M0 0 C0.99 0.33 1.98 0.66 3 1 C2.29875 1.680625 1.5975 2.36125 0.875 3.0625 C-1.84618539 5.76042739 -4.26095775 8.66593452 -6.66796875 11.64453125 C-7.10753906 12.09183594 -7.54710937 12.53914062 -8 13 C-8.66 13 -9.32 13 -10 13 C-8.65515286 8.95838045 -6.9494838 6.61321846 -3.875 3.6875 C-3.15054688 2.99011719 -2.42609375 2.29273438 -1.6796875 1.57421875 C-1.12539063 1.05472656 -0.57109375 0.53523437 0 0 Z " fill="#121212" transform="translate(65,156)"/>
<path d="M0 0 C0.99 0.33 1.98 0.66 3 1 C2.82374165 3.37948772 2.30280227 4.70225849 0.59765625 6.37890625 C-0.90649092 7.62115486 -2.45129851 8.81376056 -4 10 C-4 5.28093812 -2.71245796 3.72962969 0 0 Z " fill="#01B401" transform="translate(178,166)"/>
<path d="M0 0 C0.99 0.33 1.98 0.66 3 1 C-0.13923823 4.39271709 -3.65631114 6.4450608 -8 8 C-11 7.75 -11 7.75 -13 7 C-13 6.67 -13 6.34 -13 6 C-11.7315625 5.62875 -11.7315625 5.62875 -10.4375 5.25 C-7.71514635 4.26005322 -5.73465295 3.30186639 -3.3125 1.8125 C-2.219375 1.214375 -1.12625 0.61625 0 0 Z " fill="#D9E8DA" transform="translate(144,94)"/>
<path d="M0 0 C0.33 0.99 0.66 1.98 1 3 C3.00016466 4.20882096 3.00016466 4.20882096 5 5 C4.34 5.66 3.68 6.32 3 7 C0.99453311 6.70131344 -1.00577205 6.36628677 -3 6 C-3.99 6.33 -4.98 6.66 -6 7 C-4.60667426 3.63279613 -3.0210714 2.0140476 0 0 Z " fill="#E4E5E4" transform="translate(160,152)"/>
<path d="M0 0 C3.96 0.33 7.92 0.66 12 1 C12 1.99 12 2.98 12 4 C10.35 3.67 8.7 3.34 7 3 C6.67 3.99 6.34 4.98 6 6 C5.34 5.67 4.68 5.34 4 5 C4.33 4.01 4.66 3.02 5 2 C3.02 2 1.04 2 -1 2 C-0.67 1.34 -0.34 0.68 0 0 Z " fill="#0D0D0D" transform="translate(175,139)"/>
<path d="M0 0 C0.66 1.98 1.32 3.96 2 6 C0.35 6.66 -1.3 7.32 -3 8 C-4 7 -4 7 -4.0625 3.9375 C-4.041875 2.968125 -4.02125 1.99875 -4 1 C-2 0 -2 0 0 0 Z " fill="#0EB610" transform="translate(163,78)"/>
<path d="M0 0 C3.34249629 0.59687434 5.46436342 1.73603877 8 4 C8 4.66 8 5.32 8 6 C2.46153846 6.36923077 2.46153846 6.36923077 0.125 4.5 C-0.24625 4.005 -0.6175 3.51 -1 3 C-0.67 2.01 -0.34 1.02 0 0 Z " fill="#1BB91E" transform="translate(170,46)"/>
<path d="M0 0 C0.598125 0.20625 1.19625 0.4125 1.8125 0.625 C0.56124616 4.37876152 -0.7527404 4.86573289 -4.1875 6.625 C-4.8475 6.625 -5.5075 6.625 -6.1875 6.625 C-5.875 4.25 -5.875 4.25 -5.1875 1.625 C-2.1875 -0.375 -2.1875 -0.375 0 0 Z " fill="#07B608" transform="translate(72.1875,33.375)"/>
<path d="M0 0 C0.33 0.66 0.66 1.32 1 2 C-1.78999451 5.48749314 -4.25235831 8.50157221 -8 11 C-8.66 10.67 -9.32 10.34 -10 10 C-8.90033225 8.70450101 -7.79508199 7.41373929 -6.6875 6.125 C-6.07261719 5.40570313 -5.45773438 4.68640625 -4.82421875 3.9453125 C-3 2 -3 2 0 0 Z " fill="#DAF0DC" transform="translate(78,68)"/>
<path d="M0 0 C2.0343459 1.41519715 2.90410393 2.54982123 3.421875 4.98046875 C3.66273952 6.98176954 3.83532741 8.9909944 4 11 C2 10 2 10 1 7 C-1.50447516 5.78130071 -1.50447516 5.78130071 -4 5 C-2.68 4.67 -1.36 4.34 0 4 C0 2.68 0 1.36 0 0 Z " fill="#0A0A0A" transform="translate(113,182)"/>
<path d="M0 0 C2.64 0.33 5.28 0.66 8 1 C7.67 2.65 7.34 4.3 7 6 C4 6 4 6 1.8125 4.125 C0 2 0 2 0 0 Z " fill="#CCCCCC" transform="translate(172,140)"/>
<path d="M0 0 C2.46278801 2.46278801 2.99771255 4.70676982 4 8 C2.35 8.33 0.7 8.66 -1 9 C-1.625 6.1875 -1.625 6.1875 -2 3 C-1.34 2.01 -0.68 1.02 0 0 Z " fill="#14B815" transform="translate(193,74)"/>
<path d="M0 0 C0.66 0.99 1.32 1.98 2 3 C2.33 2.34 2.66 1.68 3 1 C5.97 1 8.94 1 12 1 C12 1.33 12 1.66 12 2 C9.69 2 7.38 2 5 2 C4.67 3.32 4.34 4.64 4 6 C2.35 5.67 0.7 5.34 -1 5 C-0.67 3.35 -0.34 1.7 0 0 Z " fill="#A5DBAB" transform="translate(86,89)"/>
<path d="M0 0 C-3.90869534 3.15702316 -7.8614939 6 -13 6 C-13 5.34 -13 4.68 -13 4 C-11.40233897 3.13372601 -9.79660056 2.28233535 -8.1875 1.4375 C-7.29417969 0.96183594 -6.40085938 0.48617187 -5.48046875 -0.00390625 C-3 -1 -3 -1 0 0 Z " fill="#E5EFE5" transform="translate(159,89)"/>
<path d="M0 0 C0.66 0 1.32 0 2 0 C2 0.66 2 1.32 2 2 C2.66 2 3.32 2 4 2 C3.34 3.98 2.68 5.96 2 8 C1.34 8 0.68 8 0 8 C-0.33 7.67 -0.66 7.34 -1 7 C-1.66 6.67 -2.32 6.34 -3 6 C-2.01 4.02 -1.02 2.04 0 0 Z " fill="#16B718" transform="translate(190,146)"/>
<path d="M0 0 C-0.66 0 -1.32 0 -2 0 C-2.185625 1.2065625 -2.185625 1.2065625 -2.375 2.4375 C-2.58125 3.283125 -2.7875 4.12875 -3 5 C-3.99 5.495 -3.99 5.495 -5 6 C-5.66 5.67 -6.32 5.34 -7 5 C-7 4.01 -7 3.02 -7 2 C-6.01 2 -5.02 2 -4 2 C-4 1.34 -4 0.68 -4 0 C-5.32 0.33 -6.64 0.66 -8 1 C-7 -1 -7 -1 -5.125 -1.75 C-3 -2 -3 -2 0 0 Z " fill="#CDE0CD" transform="translate(99,108)"/>
<path d="M0 0 C1.32 0.66 2.64 1.32 4 2 C4.33 1.34 4.66 0.68 5 0 C5.66 0.66 6.32 1.32 7 2 C2.93662608 4.70891595 -1.10048391 6 -6 6 C-4.02 4.02 -2.04 2.04 0 0 Z " fill="#1FB621" transform="translate(73,66)"/>
<path d="M0 0 C0.66 0 1.32 0 2 0 C2.33 2.64 2.66 5.28 3 8 C1.35 8 -0.3 8 -2 8 C-1.34 5.36 -0.68 2.72 0 0 Z " fill="#DDDDDD" transform="translate(110,178)"/>
<path d="M0 0 C1.88391785 3.26545761 2.49287967 6.28111761 3 10 C1.35 10 -0.3 10 -2 10 C-2.33 8.35 -2.66 6.7 -3 5 C-2.34 4.67 -1.68 4.34 -1 4 C-0.34786708 1.97536745 -0.34786708 1.97536745 0 0 Z " fill="#12B514" transform="translate(28,125)"/>
<path d="M0 0 C0.66 0.33 1.32 0.66 2 1 C1.375 2.875 1.375 2.875 0 5 C-3.125 6.25 -3.125 6.25 -6 7 C-6 6.01 -6 5.02 -6 4 C-3 1.8125 -3 1.8125 0 0 Z " fill="#02B203" transform="translate(56,44)"/>
<path d="M0 0 C0.33 0 0.66 0 1 0 C0.67 2.64 0.34 5.28 0 8 C-2.475 7.01 -2.475 7.01 -5 6 C-3.35830472 3.97945196 -1.69088222 1.97956942 0 0 Z " fill="#E4E4E4" transform="translate(80,170)"/>
<path d="M0 0 C0 1.65 0 3.3 0 5 C-2.3431213 4.74438677 -4.67843403 4.40729228 -7 4 C-7.33 3.34 -7.66 2.68 -8 2 C-5.09399739 0.74335022 -3.20395416 0 0 0 Z " fill="#DBDBDB" transform="translate(187,110)"/>
<path d="M0 0 C0.99 0 1.98 0 3 0 C3.66 2.64 4.32 5.28 5 8 C4.01 7.67 3.02 7.34 2 7 C2 5.68 2 4.36 2 3 C0.02 3.99 0.02 3.99 -2 5 C-1.34 3.35 -0.68 1.7 0 0 Z " fill="#1C1C1C" transform="translate(110,175)"/>
<path d="M0 0 C1.65 0 3.3 0 5 0 C5 0.66 5 1.32 5 2 C4.01 2 3.02 2 2 2 C2 2.99 2 3.98 2 5 C2.66 5 3.32 5 4 5 C3.67 5.99 3.34 6.98 3 8 C2.01 7.67 1.02 7.34 0 7 C0 4.69 0 2.38 0 0 Z " fill="#F3F6F3" transform="translate(90,108)"/>
<path d="M0 0 C0.33 0 0.66 0 1 0 C1.66 3.3 2.32 6.6 3 10 C2.01 10.33 1.02 10.66 0 11 C-1.62651522 7.74696956 -1.11453156 4.60774398 -1 1 C-0.67 0.67 -0.34 0.34 0 0 Z " fill="#22B425" transform="translate(101,157)"/>
<path d="M0 0 C0.33 0 0.66 0 1 0 C1.33 1.65 1.66 3.3 2 5 C2.99 5 3.98 5 5 5 C5.99 5.33 6.98 5.66 8 6 C5 8 5 8 2.375 7.75 C1.59125 7.5025 0.8075 7.255 0 7 C-1.33332095 4.3333581 -0.67102033 2.83319697 0 0 Z " fill="#DBEDDD" transform="translate(95,129)"/>
<path d="M0 0 C1.65 0 3.3 0 5 0 C5.93065133 2.60582371 6.14917407 3.64198224 5.0625 6.25 C4.5365625 7.11625 4.5365625 7.11625 4 8 C3.01 7.67 2.02 7.34 1 7 C1.66 5.02 2.32 3.04 3 1 C2.01 0.67 1.02 0.34 0 0 Z " fill="#27BB2A" transform="translate(102,52)"/>
<path d="M0 0 C1.65 0 3.3 0 5 0 C5.33 1.32 5.66 2.64 6 4 C4.02 4.33 2.04 4.66 0 5 C0 3.35 0 1.7 0 0 Z " fill="#12B713" transform="translate(128,195)"/>
<path d="M0 0 C5.75 1.875 5.75 1.875 8 3 C7.67 3.99 7.34 4.98 7 6 C4.36 4.68 1.72 3.36 -1 2 C-0.67 1.34 -0.34 0.68 0 0 Z " fill="#242424" transform="translate(176,118)"/>
<path d="M0 0 C2 3 2 3 1.625 5.1875 C1.41875 5.785625 1.2125 6.38375 1 7 C0.67 6.67 0.34 6.34 0 6 C-0.66 6.99 -1.32 7.98 -2 9 C-2 6.36 -2 3.72 -2 1 C-1.34 0.67 -0.68 0.34 0 0 Z " fill="#00B100" transform="translate(26,115)"/>
<path d="M0 0 C1.6396875 0.0928125 1.6396875 0.0928125 3.3125 0.1875 C3.3125 0.8475 3.3125 1.5075 3.3125 2.1875 C0.0125 2.5175 -3.2875 2.8475 -6.6875 3.1875 C-3.6875 0.1875 -3.6875 0.1875 0 0 Z " fill="#101010" transform="translate(188.6875,98.8125)"/>
<path d="M0 0 C0.66 0.33 1.32 0.66 2 1 C-0.35277269 3.72426311 -2.62496331 4.8141763 -6 6 C-6.66 5.34 -7.32 4.68 -8 4 C-6.71349294 3.30289269 -5.42059335 2.61757124 -4.125 1.9375 C-3.40570313 1.55464844 -2.68640625 1.17179687 -1.9453125 0.77734375 C-1.30335938 0.52082031 -0.66140625 0.26429687 0 0 Z " fill="#D9E1D9" transform="translate(167,91)"/>
<path d="M0 0 C3.4375 0.8125 3.4375 0.8125 7 2 C7.33 2.99 7.66 3.98 8 5 C3.48279689 5.36625971 3.48279689 5.36625971 1.1875 3.625 C0 2 0 2 0 0 Z " fill="#050505" transform="translate(184,122)"/>
<path d="M0 0 C0.66 0.33 1.32 0.66 2 1 C0.68 4.3 -0.64 7.6 -2 11 C-2.33 11 -2.66 11 -3 11 C-3.36923077 4.6 -3.36923077 4.6 -1.5 1.5625 C-1.005 1.046875 -0.51 0.53125 0 0 Z " fill="#E2F3E2" transform="translate(89,107)"/>
<path d="M0 0 C1 2 1 2 1 6 C-0.98 6.99 -0.98 6.99 -3 8 C-3 6 -3 4 -3 2 C-2.01 1.34 -1.02 0.68 0 0 Z " fill="#17B819" transform="translate(66,35)"/>
<path d="M0 0 C1.2065625 0.0309375 1.2065625 0.0309375 2.4375 0.0625 C2.1075 1.0525 1.7775 2.0425 1.4375 3.0625 C-1.125 4.25 -1.125 4.25 -3.5625 5.0625 C-3.5625 0.08689024 -3.5625 0.08689024 0 0 Z " fill="#CFE1D1" transform="translate(103.5625,152.9375)"/>
<path d="M0 0 C0.33 0.99 0.66 1.98 1 3 C-0.25 4.5625 -0.25 4.5625 -2 6 C-4.1875 5.6875 -4.1875 5.6875 -6 5 C-4.02 3.35 -2.04 1.7 0 0 Z " fill="#DDE9DE" transform="translate(150,136)"/>
<path d="M0 0 C0.66 0 1.32 0 2 0 C2.36923077 5.53846154 2.36923077 5.53846154 0.5 7.875 C-0.2425 8.431875 -0.2425 8.431875 -1 9 C-2.60031344 5.79937313 -1.03173691 3.27728194 0 0 Z " fill="#E9F7EA" transform="translate(169,111)"/>
<path d="M0 0 C0.99 0 1.98 0 3 0 C2.67 2.31 2.34 4.62 2 7 C1.01 7.33 0.02 7.66 -1 8 C-0.67 5.36 -0.34 2.72 0 0 Z " fill="#CBDDCD" transform="translate(68,109)"/>
<path d="M0 0 C0 1.32 0 2.64 0 4 C-2.31 4 -4.62 4 -7 4 C-3.17391304 0 -3.17391304 0 0 0 Z " fill="#2FB732" transform="translate(152,103)"/>
<path d="M0 0 C1.65 0 3.3 0 5 0 C4.67 0.99 4.34 1.98 4 3 C3.34 2.67 2.68 2.34 2 2 C2 2.66 2 3.32 2 4 C2.99 4.33 3.98 4.66 5 5 C3.68 5.33 2.36 5.66 1 6 C0.67 4.02 0.34 2.04 0 0 Z " fill="#3CBF3F" transform="translate(124,96)"/>
<path d="M0 0 C0.433125 0.639375 0.86625 1.27875 1.3125 1.9375 C2.91239177 4.26746003 2.91239177 4.26746003 6 5 C6 5.33 6 5.66 6 6 C3.69 6 1.38 6 -1 6 C-0.67 4.02 -0.34 2.04 0 0 Z " fill="#E3EEE4" transform="translate(157,72)"/>
<path d="M0 0 C0.99 0 1.98 0 3 0 C2.67 2.31 2.34 4.62 2 7 C0.68 5.35 -0.64 3.7 -2 2 C-1.34 1.34 -0.68 0.68 0 0 Z " fill="#21B423" transform="translate(39,158)"/>
<path d="M0 0 C1.32 0.33 2.64 0.66 4 1 C4.625 2.875 4.625 2.875 5 5 C4.34 5.66 3.68 6.32 3 7 C0 2.25 0 2.25 0 0 Z " fill="#E7F8E8" transform="translate(77,113)"/>
</svg>
